<?xml version="1.0" standalone="no"?><!DOCTYPE svg PUBLIC "-//W3C//DTD SVG 1.1//EN" "http://www.w3.org/Graphics/SVG/1.1/DTD/svg11.dtd"><svg t="1682866503096" class="icon" viewBox="0 0 1024 1024" version="1.1" xmlns="http://www.w3.org/2000/svg" p-id="74419" xmlns:xlink="http://www.w3.org/1999/xlink" width="300" height="300"><path d="M763 429.01h59.73v261.16h-59.73z" fill="#6D5D72" p-id="74420"></path><path d="M977.32 714.18H47.43c-12.88 0-24.01-10.54-24.01-24.01v-24.01h977.33v24.01c0 13.48-10.54 24.01-23.43 24.01z m0 0" fill="#6D5D72" p-id="74421"></path><path d="M995.48 499.86L879.54 338.25c-2.34-2.34-5.85-4.1-9.37-4.1h-47.43c-6.44 0-11.71 5.27-11.71 11.71v320.9c0 6.44 5.27 11.71 11.71 11.71h166.3c19.33 0 35.72-15.81 35.72-35.72V534.41c0-17.56-12.88-32.2-29.28-34.55z" fill="#FFAE19" p-id="74422"></path><path d="M927.55 345.86c15.23 0 29.28 9.96 33.96 24.59l33.38 129.41s-85.49-17.56-110.67-24.59c-15.81-4.1-26.35-18.15-26.35-34.55v-94.86h69.68z m0 0" fill="#65546A" p-id="74423"></path><path d="M858.45 357.57c-6.44 0-11.71-5.27-11.71-11.71v-56.21c0-6.44-2.34-12.3-7.03-16.98l-13.47-13.47c-4.68-4.69-4.68-12.3 0-16.98 4.69-4.69 12.3-4.69 16.98 0l13.47 13.47c9.37 9.37 14.05 21.08 14.05 33.38v56.8c-0.58 6.43-5.84 11.7-12.29 11.7z m0 0" fill="#97919D" p-id="74424"></path><path d="M751.29 286.13H35.72c-19.32 0-35.72 15.82-35.72 35.72v320.9c0 19.32 15.81 35.72 35.72 35.72h739.58c6.44 0 11.72-5.27 11.72-11.71V322.44c0-20.5-16.4-36.31-35.73-36.31z m0 0" fill="#525F91" p-id="74425"></path><path d="M0 643.33c0 19.32 15.81 35.72 35.72 35.72h739.58c6.44 0 11.72-5.27 11.72-11.71v-83.15H0v59.14z m0 0" fill="#645D7F" p-id="74426"></path><path d="M632.42 738.2h-95.45c-12.88 0-24.01-10.54-24.01-24.01v-24.01c0-12.88 10.54-24.01 24.01-24.01h95.45c12.88 0 24.01 10.54 24.01 24.01v24.01c-0.58 13.46-11.12 24.01-24.01 24.01z m0 0" fill="#8F8895" p-id="74427"></path><path d="M549.27 714.18c-2.93 0-5.85-1.17-8.2-3.51-2.34-2.34-3.51-5.27-3.51-8.2 0-2.93 1.17-5.85 3.51-8.2 4.1-4.1 12.88-4.1 16.98 0 2.34 2.34 3.51 5.27 3.51 8.2 0 2.93-1.17 5.86-3.51 8.2-2.92 2.35-5.85 3.51-8.78 3.51z m0 0" fill="#6D5D72" p-id="74428"></path><path d="M983.18 583.6c-9.96 0-17.57 7.61-17.57 17.57 0 9.95 7.61 17.57 17.57 17.57h17.57v-35.72h-17.57v0.58z m0 0" fill="#DBFF32" p-id="74429"></path><path d="M323.24 702.47c0 46.26 37.48 83.15 83.15 83.15 45.68 0 83.15-37.48 83.15-83.15s-37.48-83.15-83.15-83.15c-45.68 0-83.15 37.48-83.15 83.15z m0 0" fill="#6D5D72" p-id="74430"></path><path d="M358.96 702.47c0 26.35 21.08 47.43 47.43 47.43s47.43-21.08 47.43-47.43-21.08-47.43-47.43-47.43-47.43 21.09-47.43 47.43z m0 0" fill="#8F8895" p-id="74431"></path><path d="M147.57 702.47c0 46.26 37.48 83.15 83.15 83.15s83.15-37.48 83.15-83.15-37.48-83.15-83.15-83.15-83.15 37.48-83.15 83.15z m0 0" fill="#6D5D72" p-id="74432"></path><path d="M183.28 702.47c0 26.35 21.08 47.43 47.43 47.43s47.43-21.08 47.43-47.43-21.08-47.43-47.43-47.43c-26.34 0-47.43 21.09-47.43 47.43z m0 0" fill="#8F8895" p-id="74433"></path><path d="M798.73 702.47c0 46.26 37.48 83.15 83.15 83.15 45.67 0 83.15-37.48 83.15-83.15s-37.48-83.15-83.15-83.15c-45.67 0-83.15 37.48-83.15 83.15z m0 0" fill="#6D5D72" p-id="74434"></path><path d="M834.45 702.47c0 26.35 21.08 47.43 47.43 47.43s47.43-21.08 47.43-47.43-21.08-47.43-47.43-47.43-47.43 21.09-47.43 47.43z m0 0" fill="#8F8895" p-id="74435"></path><path d="M1000.75 583.6H1024.76v35.72h-24.01z" fill="#FFFFFF" p-id="74436"></path><path d="M965.03 334.15H822.74c-6.44 0-11.71 5.27-11.71 11.71v11.71h154.59c6.44 0 11.71-5.27 11.71-11.71-0.01-6.44-5.86-11.71-12.3-11.71z m0 0" fill="#C1471F" p-id="74437"></path></svg>