<?xml version="1.0" standalone="no"?><!DOCTYPE svg PUBLIC "-//W3C//DTD SVG 1.1//EN" "http://www.w3.org/Graphics/SVG/1.1/DTD/svg11.dtd"><svg t="1683827925820" class="icon" viewBox="0 0 1024 1024" version="1.1" xmlns="http://www.w3.org/2000/svg" p-id="30482" xmlns:xlink="http://www.w3.org/1999/xlink" width="300" height="300"><path d="M741.29688247 755.4013656l-0.34137697 60.76499681-69.29940642 40.62379019v-60.7649968z" fill="#BB884F" p-id="30483"></path><path d="M671.65609908 796.0251558v60.7649968l-101.73016399-58.71673899 0.34137561-60.76499681z" fill="#E0B477" p-id="30484"></path><path d="M741.29688247 755.4013656l-69.64078339 40.6237902-101.38878838-58.716739 69.2994078-40.6237902z" fill="#EFCD90" p-id="30485"></path><path d="M612.59798309 712.7293162l-14.3378074 8.193034 101.388787 58.71673898 14.3378088-8.5344096z" fill="#F7ECEA" p-id="30486"></path><path d="M699.64896269 779.63908918l14.3378088-8.5344096v14.67918442l-14.3378088 8.19303261z" fill="#C2AB9D" p-id="30487"></path><path d="M733.7866011 812.75259801v1.36550659l-10.9240444 6.14477479v-1.36550519zM731.73834329 813.093975l-1.36550521 0.68275261v-7.51028002l-1.0241296 0.68275261 1.70688221-4.43789261 2.04825781 2.38963341-1.36550521 0.682754zM726.2763211 816.16636241l-1.36550522 0.68275259v-7.51028l-1.02412959 0.68275261 1.70688219-4.09651701 2.04825782 2.04825919-1.3655052 0.68275261z" fill="#5C4123" p-id="30488"></path><path d="M719.44879369 821.28700899v-10.5826688c0-2.04825781 1.7068822-4.7792696 3.75514-5.80339919l10.58266741-6.1447748c2.04825781-1.02412959 3.75514-0.34137699 3.75514001 1.70688221v10.58266878c0 2.04825781-1.7068822 4.7792696-3.75514001 5.80339781l-10.58266741 6.1447748c-2.04825781 1.02412959-3.75514 0.34137699-3.75514-1.70688081z m3.75514-15.70331399c-1.7068822 1.02412959-3.0723874 3.0723874-3.0723874 4.77926821v10.5826688c0 1.7068822 1.36550521 2.04825781 3.0723874 1.3655052l10.58266741-6.1447748c1.7068822-1.02412959 3.0723874-3.0723874 3.0723874-4.7792696v-10.58266741c0-1.7068822-1.36550521-2.04825781-3.0723874-1.36550658l-10.58266741 6.14477618zM700.67309229 826.06627721c0-0.34137699 1.02412959-1.02412959 2.38963479-1.70688082 1.36550521-0.68275261 2.38963479-1.02412959 2.38963341-0.68275398 0-0.34137699 0.68275261-1.02412959 1.70688221-1.70688081v6.4861504c0 0.68275261 0.68275261 0.68275261 1.70688219 0.34137699s1.7068822-1.7068822 1.7068822-2.38963479c0-0.34137699 0-0.34137699-0.341377-0.34137699s-0.34137699 0.34137699-0.34137559 0.68275399-0.34137699 1.02412959-1.02412961 1.36550521c-1.02412959 0.68275261-0.68275261-0.68275261-0.68275259-0.68275262v-6.1447748c1.02412959-0.68275261 1.7068822-0.68275261 1.7068822-0.68275398 0-0.34137699 1.02412959-1.02412959 2.38963479-1.70688081 1.36550521-0.68275261 2.38963479-1.02412959 2.3896348-0.682754 0-2.73101179-3.0723874-3.75514-6.48615179-2.04825779 0-0.34137699-0.34137699-0.34137699-0.341377 0-0.34137699 0-0.68275261 0.34137699-0.6827526 0.68275259-3.75514 2.38963479-6.4861518 6.4861518-6.48615041 9.21716221-0.34137699 0-0.34137699 0 0 0z" fill="#5C4123" p-id="30489"></path><path d="M698.28345748 833.57655859v-10.58266879c0-2.04825781 1.7068822-4.7792696 3.75514001-5.8033978l10.58266741-6.14477481c2.04825781-1.02412959 3.75514-0.34137699 3.75514001 1.70688082v10.5826688c0 2.04825781-1.7068822 4.7792696-3.75514001 5.8033978l-10.58266741 6.14477619c-2.04825781 1.02412959-3.75514 0.34137699-3.75514001-1.70688221z m3.75514001-16.04469098c-1.7068822 1.02412959-3.0723874 3.0723874-3.0723874 4.7792696v10.5826688c0 1.7068822 1.36550521 2.04825781 3.0723874 1.36550519l10.58266741-6.14477479c1.7068822-1.02412959 3.0723874-3.0723874 3.07238741-4.7792696v-10.5826688c0-1.7068822-1.36550521-2.04825781-3.07238741-1.3655052l-10.58266741 6.1447748zM683.6042717 833.91793421c0 1.7068822 1.02412959 2.38963479 2.73101179 1.7068822v5.12064658l-1.7068822 1.02412821v0.68275261l4.096517-2.38963341v-0.68275399l-1.70688219 1.02412958v-5.12064519c1.36550521-1.02412959 2.38963479-3.0723874 2.73101178-4.7792696v-3.75514l-5.46202218 3.413763v3.75514001z" fill="#5C4123" p-id="30490"></path><path d="M677.4594969 845.52473259v-10.58266879c0-2.04825781 1.7068822-4.7792696 3.75514001-5.80339919l10.58266879-6.14477481c2.04825781-1.02412959 3.75514-0.34137699 3.75514 1.7068822v10.5826688c0 2.04825781-1.7068822 4.7792696-3.75514 5.8033978l-10.58266879 6.14477481c-2.04825781 1.02412959-3.75514 0.34137699-3.75514001-1.70688082z m3.75514001-15.703314c-1.7068822 1.02412959-3.0723874 3.0723874-3.07238741 4.77926959v10.58266741c0 1.7068822 1.36550521 2.04825781 3.07238741 1.36550521l10.58266879-6.14477481c1.7068822-1.02412959 3.0723874-3.0723874 3.0723874-4.77926958v-10.58266742c0-1.7068822-1.36550521-2.04825781-3.0723874-1.36550658l-10.58266879 6.14477618z" fill="#5C4123" p-id="30491"></path><path d="M648.44250371 814.4594802v60.76499819L578.80172031 915.50689161l0.34137698-60.76499682z" fill="#BB884F" p-id="30492"></path><path d="M579.14309729 854.74189479l-0.34137698 60.76499682-101.38878701-58.37536202v-61.10637379z" fill="#E0B477" p-id="30493"></path><path d="M648.44250371 814.4594802l-69.29940642 40.28241459-101.73016399-58.71673899 69.64078339-40.28241461z" fill="#EFCD90" p-id="30494"></path><path d="M520.08498131 771.44605521l-14.33780741 8.5344096 101.38878699 58.37536338 14.3378088-8.19303399z" fill="#F7ECEA" p-id="30495"></path><path d="M607.13596089 838.35582819l14.3378088-8.19303399v14.3378088l-14.3378088 8.5344096z" fill="#C2AB9D" p-id="30496"></path><path d="M641.27360068 871.81071398v1.36550522l-10.92404577 6.14477481v-1.36550521zM639.2253415 872.15208961l-1.3655052 0.68275398v-7.851657l-1.02412959 0.6827526 1.70688219-4.09651699 1.70688219 2.04825781-1.02412959 0.68275397zM633.76331931 875.22447839l-1.36550521 0.68275261v-7.51028139l-1.0241296 0.6827526 1.7068822-4.43789262 1.7068822 2.04825782-1.02412959 1.0241296z" fill="#5C4123" p-id="30497"></path><path d="M626.5944149 880.34512361v-10.58266742c0-2.04825781 1.7068822-4.7792696 3.75514001-5.80339919l10.58266879-6.1447748c2.04825781-1.02412959 3.75514-0.34137699 3.75514 1.70688219v10.58266743c0 2.04825781-1.7068822 4.7792696-3.75514 5.80339918l-10.58266879 6.14477481c-2.04825781 1.02412959-3.75514 0.34137699-3.75514001-1.7068822z m3.75514001-16.04468963c-1.7068822 1.02412959-3.0723874 3.0723874-3.0723874 4.77926823v10.5826688c0 1.7068822 1.36550521 2.04825781 3.0723874 1.36550519l10.58266879-6.14477479c1.7068822-1.02412959 3.0723874-3.0723874 3.0723874-4.77926959v-10.58266743c0-1.7068822-1.36550521-2.04825781-3.0723874-1.36550657l-10.58266879 6.14477616z" fill="#5C4123" p-id="30498"></path><path d="M607.81871349 885.12439319s0.34137699 0 0 0c0-0.34137699 1.02412959-1.02412959 2.3896348-1.70688218 1.36550521-0.68275261 2.38963479-1.02412959 2.3896348-0.68275261 0-0.34137699 0.68275261-1.02412959 1.7068822-1.7068822v6.4861518c0 0.68275261 0.68275261 0.68275261 1.70688221 0.34137562s1.7068822-1.7068822 1.70688217-2.38963481c0-0.34137699 0-0.34137699-0.34137698-0.34137562s-0.34137699 0.34137699-0.3413756 0.68275261-0.34137699 1.02412959-1.02412959 1.36550521c-1.02412959 0.68275261-1.02412959-0.68275261-1.02412961-0.68275261V880.34512361c1.02412959-0.68275261 1.7068822-0.68275261 1.7068822-0.6827526 0-0.34137699 1.02412959-1.02412959 2.38963479-1.70688221 1.36550521-0.68275261 2.38963479-1.02412959 2.38963481-0.68275259 0-2.73101179-3.0723874-3.75514-6.4861518-2.04825782 0-0.34137699-0.34137699-0.34137699-0.3413756 0-0.34137699 0-0.34137699 0.34137699-0.341377 0.68275261-3.41376439 2.04825781-6.4861518 6.4861518-6.4861518 9.21716219z" fill="#5C4123" p-id="30499"></path><path d="M605.77045568 892.2932976v-10.58266879c0-2.04825781 1.7068822-4.7792696 3.75514001-5.80339781l10.58266879-6.14477481c2.04825781-1.02412959 3.75514-0.34137699 3.75514 1.70688082v10.5826688c0 2.04825781-1.7068822 4.7792696-3.75514 5.80339781L609.52559569 894.00017981c-2.04825781 1.02412959-3.75514 0.34137699-3.75514001-1.70688221z m3.75514001-15.70331402c-1.7068822 1.02412959-3.0723874 3.0723874-3.07238739 4.7792696v10.58266743c0 1.7068822 1.36550521 2.04825781 3.07238739 1.3655052l10.58266879-6.1447748c1.7068822-1.02412959 3.0723874-3.0723874 3.07238741-4.7792696v-10.58266743c0-1.7068822-1.36550521-2.04825781-3.07238741-1.36550519l-10.58266879 6.14477479z" fill="#5C4123" p-id="30500"></path><path d="M591.09127129 892.9760502c0 1.7068822 1.02412959 2.38963479 2.7310104 1.70688219v5.12064522l-1.70688218 1.02412959v0.6827526l4.09651698-2.3896348v-0.68275261l-1.70688219 1.0241296v-5.12064659c1.36550521-1.02412959 2.38963479-3.0723874 2.73101179-4.7792696v-3.75514l-5.8033992 3.41376441v3.75513999z" fill="#5C4123" p-id="30501"></path><path d="M584.6051195 904.5828472V894.00017981c0-2.04825781 1.7068822-4.7792696 3.75514-5.80339921l10.58266879-6.14477479c2.04825781-1.02412959 3.75514-0.34137699 3.75514001 1.70688217v10.58266742c0 2.04825781-1.7068822 4.7792696-3.75514001 5.80339919l-10.58266879 6.14477481c-2.04825781 1.02412959-3.75514 0.34137699-3.75514-1.7068822z m3.75514-16.04468962c-1.7068822 1.02412959-3.0723874 3.0723874-3.0723874 4.77926823v10.58266879c0 1.7068822 1.36550521 2.04825781 3.0723874 1.36550521l10.58266879-6.14477481c1.7068822-1.02412959 3.0723874-3.0723874 3.0723874-4.7792696V883.75888798c0-1.7068822-1.36550521-2.04825781-3.0723874-1.36550657l-10.58266879 6.14477617z" fill="#5C4123" p-id="30502"></path><path d="M691.4559287 719.55684499l-0.34137561 60.76499681-69.6407834 40.62379021 0.34137562-60.76499682z" fill="#A67946" p-id="30503"></path><path d="M621.81514531 760.18063519l-0.34137562 60.76499682-101.38878838-58.71673901 0.34137699-60.7649968z" fill="#E0B477" p-id="30504"></path><path d="M691.4559287 719.55684499l-69.64078339 40.6237902-101.38878701-58.71673899 69.2994064-40.62379022z" fill="#EFCD90" p-id="30505"></path><path d="M562.75703069 676.88479561l-14.33780879 8.19303399 101.38878839 58.71673899 14.33780741-8.5344096z" fill="#F7ECEA" p-id="30506"></path><path d="M649.80801029 743.79456859l14.33780741-8.5344096v14.6791844l-14.33780741 8.19303261z" fill="#C2AB9D" p-id="30507"></path><path d="M683.94564869 776.90807741v1.36550657l-10.9240444 6.48615043v-1.7068822zM681.89739089 777.24945439l-1.36550659 0.68275261v-7.51028001l-1.0241282 0.68275259 1.70688081-4.43789397 1.70688219 2.3896348-1.02412821 0.6827526zM676.43536868 780.3218418l-1.36550658 0.6827526v-7.51028002l-1.02412821 0.68275262 1.70688081-4.09651701 1.7068822 2.04825782-1.02412822 0.68275398z" fill="#5C4123" p-id="30508"></path><path d="M669.6078399 785.44248701v-10.58266743c0-2.04825781 1.7068822-4.7792696 3.75514-5.80339917l10.58266879-6.14477482c2.04825781-1.02412959 3.75514-0.34137699 3.75514 1.70688221v10.58266741c0 2.04825781-1.7068822 4.7792696-3.75514 5.80339919l-10.58266879 6.14477481c-2.38963479 1.02412959-3.75514 0.34137699-3.75514-1.7068822z m3.41376439-15.703314c-1.7068822 1.02412959-3.0723874 3.0723874-3.07238739 4.7792696v10.58266879c0 1.7068822 1.36550521 2.04825781 3.07238739 1.36550521l10.58266741-6.14477481c1.7068822-1.02412959 3.0723874-3.0723874 3.0723874-4.7792696v-10.58266741c0-1.7068822-1.36550521-2.04825781-3.0723874-1.36550658l-10.58266741 6.1447748z" fill="#5C4123" p-id="30509"></path><path d="M650.49076289 790.22175661c0.34137699 0 0.34137699 0 0 0 0-0.34137699 1.02412959-1.02412959 2.38963481-1.7068822 1.36550521-0.68275261 2.38963479-1.02412959 2.38963479-0.6827526 0-0.34137699 0.68275261-1.02412959 1.70688081-1.70688219v6.48615179c0 0.68275261 0.68275261 0.68275261 1.7068822 0.34137698s1.7068822-1.7068822 1.70688221-2.38963479c0-0.34137699 0-0.34137699-0.34137562-0.34137699s-0.34137699 0.34137699-0.341377 0.68275261-0.34137699 1.02412959-1.02412959 1.36550658c-1.02412959 0.68275261-0.68275261-0.68275261-0.6827526-0.68275262v-6.14477617c1.02412959-0.68275261 1.7068822-0.68275261 1.70688219-0.6827526 0-0.34137699 1.02412959-1.02412959 2.3896348-1.7068822 1.36550521-0.68275261 2.38963479-1.02412959 2.3896348-0.6827526 0-2.73101179-3.0723874-3.75514-6.48615179-2.04825781 0-0.34137699-0.34137699-0.34137699-0.3413756 0-0.34137699 0-0.34137699 0.34137699-0.34137701 0.6827526-3.75514 2.38963479-6.4861518 6.4861518-6.8275274 9.21716221z" fill="#5C4123" p-id="30510"></path><path d="M648.44250371 797.73203799v-10.58266878c0-2.04825781 1.7068822-4.7792696 3.75514138-5.80339782l10.58266741-6.14477618c2.04825781-1.02412959 3.75514-0.34137699 3.75514 1.7068822v10.58266879c0 2.04825781-1.7068822 4.7792696-3.75514 5.80339781l-10.58266741 6.14477481c-2.04825781 1.02412959-3.75514 0.34137699-3.75514138-1.70688083z m3.75514138-16.04469098c-1.7068822 1.02412959-3.0723874 3.0723874-3.07238879 4.7792696v10.58266879c0 1.7068822 1.36550521 2.04825781 3.07238879 1.3655052l10.58266741-6.1447748c1.7068822-1.02412959 3.0723874-3.0723874 3.07238739-4.7792696v-10.58266879c0-1.7068822-1.36550521-2.04825781-3.07238739-1.36550521l-10.58266741 6.14477481z" fill="#5C4123" p-id="30511"></path><path d="M633.76331931 798.07341361c0 1.7068822 1.02412959 2.38963479 2.73101177 1.7068822v5.12064519l-1.70688218 1.0241296v0.68275261l4.09651698-2.38963479v-0.68275262l-1.70688219 1.02412961v-5.12064659c1.36550521-1.02412959 2.38963479-3.0723874 2.73101042-4.77926823v-3.75514137l-5.46202221 3.41376438v3.75514001z" fill="#5C4123" p-id="30512"></path><path d="M627.6185445 809.6802106v-10.5826674c0-2.04825781 1.7068822-4.7792696 3.75514-5.80339919l10.58266879-6.1447748c2.04825781-1.02412959 3.75514-0.34137699 3.75514001 1.70688219v10.58266742c0 2.04825781-1.7068822 4.7792696-3.75514001 5.80339919l-10.58266879 6.1447748c-2.38963479 1.02412959-3.75514 0.34137699-3.75514-1.70688221z m3.41376437-15.70331399c-1.7068822 1.02412959-3.0723874 3.0723874-3.07238738 4.77926959v10.5826688c0 1.7068822 1.36550521 2.04825781 3.07238738 1.36550519l10.58266743-6.14477478c1.7068822-1.02412959 3.0723874-3.0723874 3.0723874-4.7792696v-10.58266743c0-1.7068822-1.36550521-2.04825781-3.0723874-1.36550657l-10.58266743 6.1447748z" fill="#5C4123" p-id="30513"></path><path d="M513.25745391 32.36617322l485.09584899 279.92863878v423.3067226l-485.09584899-279.9286388z" fill="#16212E" p-id="30514"></path><path d="M679.16637909 601.4406144v60.76499679l69.64078341 40.28241322-0.341377-60.76499682z" fill="#E0B477" p-id="30515"></path><path d="M748.4657855 641.72302759l0.341377 60.76499682 101.388787-58.71673762v-60.76499819z" fill="#BB884F" p-id="30516"></path><path d="M679.16637909 601.4406144l69.29940641 40.28241319 101.730164-58.71673899-69.6407834-40.28241321z" fill="#EFCD90" p-id="30517"></path><path d="M807.52390149 558.4271894l14.67918442 8.53440959-101.73016401 58.37536201-14.33780741-8.19303261z" fill="#F7ECEA" p-id="30518"></path><path d="M720.4729219 625.336961l-14.33780741-8.19303261v14.33780742l14.33780741 8.5344096z" fill="#C2AB9D" p-id="30519"></path><path d="M686.33528349 658.45047119v1.70688221l10.9240444 6.14477479v-1.36550658zM688.72491829 659.1332238l1.02412959 0.68275259v-7.85165699l1.36550521 0.68275259-2.04825919-4.09651699-1.70688081 2.0482592 1.3655052 0.68275258zM693.8455635 662.20561119l1.36550658 0.68275261V655.03670679l1.36550521 1.02412959-2.04825919-4.43789397-1.70688081 2.04825918 1.02412821 0.68275261z" fill="#5C4123" p-id="30520"></path><path d="M697.25932789 668.691763l-10.58266879-6.14477481c-2.04825781-1.02412959-3.75514-3.75514-3.75514-5.80339919v-10.5826688c0-2.04825781 1.7068822-2.73101179 3.75514-1.70688081l10.58266879 6.14477481c2.04825781 1.02412959 3.75514 3.75514 3.75514 5.80339781v10.58266878c0 2.38963479-1.7068822 3.0723874-3.75514 1.70688221z m-10.58266879-23.554971c-1.7068822-1.02412959-3.0723874-0.34137699-3.0723874 1.36550519v10.58266743c0 1.7068822 1.36550521 3.75514 3.0723874 4.77926959l10.58266879 6.14477617c1.7068822 1.02412959 3.0723874 0.34137699 3.07238741-1.36550657v-10.58266743c0-1.7068822-1.36550521-3.75514-3.07238741-4.7792696l-10.58266879-6.14477478z" fill="#5C4123" p-id="30521"></path><path d="M719.79016929 672.10552601c0-0.34137699-1.02412959-1.02412959-2.3896348-2.04825782-1.36550521-0.68275261-2.38963479-1.02412959-2.3896348-0.68275261 0-0.34137699-0.68275261-1.02412959-1.70688219-1.70688219v6.48615179c0 0.68275261-0.68275261 0.68275261-1.70688082 0.34137563s-1.7068822-1.7068822-1.70688218-2.3896348c0-0.34137699 0-0.34137699 0.34137559-0.34137562s0.34137699 0.34137699 0.341377 0.6827526 0.34137699 1.02412959 1.02412959 1.36550521c1.02412959 0.68275261 1.02412959-0.68275261 1.02412822-0.68275259v-6.14477482c-1.02412959-0.68275261-1.7068822-0.68275261-1.70688219-0.6827526 0-0.34137699-1.02412959-1.02412959-2.38963343-1.70688221-1.36550521-0.68275261-2.38963479-1.02412959-2.38963479-0.68275258 0-2.73101179 3.0723874-3.75514 6.48615041-2.04825919 0-0.34137699 0.34137699-0.34137699 0.34137699 0 0.34137699 0 0.34137699 0.34137699 0.34137561 0.68275398 3.41376439 2.38963479 6.4861518 6.8275274 6.48615179 9.55853782z" fill="#5C4123" p-id="30522"></path><path d="M718.0832871 680.98131261l-10.58266741-6.14477482c-2.04825781-1.02412959-3.75514-3.75514-3.75514-5.80339918V658.45047119c0-2.04825781 1.7068822-2.73101179 3.75514-1.70688219l10.58266741 6.1447748c2.04825781 1.02412959 3.75514 3.75514 3.75514 5.8033992v10.58266741c0 2.04825781-1.7068822 2.73101179-3.75514 1.7068822z m-10.58266741-23.55497102c-1.7068822-1.02412959-3.0723874-0.34137699-3.0723874 1.36550522v10.58266877c0 1.7068822 1.36550521 3.75514 3.0723874 4.7792696l10.58266741 6.14477482c1.7068822 1.02412959 3.0723874 0.34137699 3.07238741-1.36550522v-10.58266877c0-1.7068822-1.36550521-3.75514-3.07238741-4.7792696l-10.58266741-6.14477482z" fill="#5C4123" p-id="30523"></path><path d="M736.8589885 679.95718301c0 1.7068822-1.02412959 2.38963479-2.73101042 1.7068822v5.12064658l1.70688221 1.02412822v0.68275259l-4.096517-2.3896348v-0.68275258l1.7068822 1.02412959v-5.12064661c-1.36550521-1.02412959-2.38963479-3.0723874-2.73101178-4.77926822v-3.75514137l5.80339918 3.4137644v3.75514z" fill="#5C4123" p-id="30524"></path><path d="M739.24862331 692.9294866l-10.58266742-6.14477481c-2.04825781-1.36550521-3.75514-3.75514-3.75514001-5.80339918v-10.58266879c0-2.04825781 1.7068822-2.73101179 3.75514001-1.70688082l10.58266742 6.14477479c2.04825781 1.02412959 3.75514 3.75514 3.75514 5.80339783v10.58266879c0 2.38963479-1.7068822 3.0723874-3.75514 1.70688219z m-10.58266742-23.55497102c-1.7068822-1.02412959-3.0723874-0.34137699-3.07238741 1.36550522v10.5826674c0 1.7068822 1.36550521 3.75514 3.07238741 4.7792696l10.58266742 6.14477619c1.7068822 1.02412959 3.0723874 0.34137699 3.0723874-1.36550659v-10.5826674c0-1.7068822-1.36550521-3.75514-3.0723874-4.7792696l-10.58266742-6.14477482z" fill="#5C4123" p-id="30525"></path><path d="M771.6793809 660.1573534l0.3413756 60.7649968 69.2994078 40.62379018v-60.76499679z" fill="#E0B477" p-id="30526"></path><path d="M841.3201643 700.78114359v60.76499679l101.73016399-58.71673898-0.34137699-60.7649968z" fill="#BB884F" p-id="30527"></path><path d="M771.6793809 660.1573534l69.6407834 40.62379019 101.388787-58.71673899-69.64078341-40.28241459z" fill="#EFCD90" p-id="30528"></path><path d="M900.3782789 617.485304l14.33780879 8.19303399-101.730164 58.71673899-14.33780879-8.53441096z" fill="#F7ECEA" p-id="30529"></path><path d="M812.98592369 684.39507698l-14.33780879-8.53441096v14.67918578l14.33780879 8.19303262z" fill="#C2AB9D" p-id="30530"></path><path d="M779.1896609 717.5085858v1.36550521l10.5826688 6.4861518v-1.7068822zM781.2379201 717.84996281l1.0241282 0.68275258v-7.51028l1.3655052 0.68275261-1.70688082-4.096517-2.04825919 2.0482578 1.36550661 0.68275261zM786.69994228 720.9223502l1.02412822 0.68275259v-7.51028l1.36550658 0.6827526-1.70688218-4.09651698-2.0482592 2.04825779 1.36550658 0.68275261z" fill="#5C4123" p-id="30531"></path><path d="M789.7723297 727.7498776l-10.5826688-6.14477481c-2.04825781-1.02412959-3.75514-3.75514-3.75513999-5.80339918v-10.58266742c0-2.04825781 1.7068822-2.73101179 3.75513999-1.70688218l10.5826688 6.14477479c2.04825781 1.02412959 3.75514 3.75514 3.75513999 5.8033992v10.5826674c0 2.04825781-1.7068822 2.73101179-3.75513999 1.7068822z m-10.5826688-23.554971c-1.7068822-1.02412959-3.0723874-0.34137699-3.07238741 1.36550659v10.58266741c0 1.7068822 1.36550521 3.75514 3.07238741 4.7792696l10.5826688 6.1447748c1.7068822 1.02412959 3.0723874 0.34137699 3.07238739-1.36550521v-10.58266878c0-1.7068822-1.36550521-3.75514-3.07238739-4.7792696l-10.5826688-6.14477481z" fill="#5C4123" p-id="30532"></path><path d="M812.30317109 730.822265c0-0.34137699-1.02412959-1.02412959-2.3896348-1.70688219-1.36550521-0.68275261-2.38963479-1.02412959-2.3896348-0.6827526 0-0.34137699-0.68275261-1.02412959-1.70688219-1.7068822v6.48615179c0 0.68275261-0.68275261 0.68275261-1.7068822 0.34137699s-1.7068822-1.7068822-1.70688221-2.3896348c0-0.34137699 0-0.34137699 0.341377-0.34137699s0.34137699 0.34137699 0.341377 0.68275261 0.34137699 1.02412959 1.02412821 1.36550658c1.02412959 0.68275261 1.02412959-0.68275261 1.0241296-0.68275398v-6.14477481c-1.02412959-0.68275261-1.7068822-0.68275261-1.7068822-0.68275259 0-0.34137699-1.02412959-1.02412959-2.3896348-1.7068822-1.36550521-0.68275261-2.38963479-1.02412959-2.3896348-0.68275261 0-2.73101179 3.0723874-3.75514 6.4861518-2.0482578 0-0.34137699 0.34137699-0.34137699 0.34137698 0 0.34137699 0 0.34137699 0.34137699 0.34137562 0.68275259 3.75514 2.38963479 6.4861518 6.4861518 6.48615179 9.21716221 0 0.34137699 0 0.34137699 0 0z" fill="#5C4123" p-id="30533"></path><path d="M810.93766589 739.69805159l-10.58266879-6.1447748c-2.04825781-1.02412959-3.75514-3.75514-3.75514001-5.80339919v-10.58266741c0-2.04825781 1.7068822-2.73101179 3.75514001-1.70688219l10.58266879 6.14477479c2.04825781 1.02412959 3.75514 3.75514 3.75514 5.8033992v10.58266741c0 2.38963479-1.7068822 3.0723874-3.75514 1.70688219z m-10.92404441-23.55497099c-1.7068822-1.02412959-3.0723874-0.34137699-3.07238878 1.3655052v10.58266879c0 1.7068822 1.36550521 3.75514 3.07238878 4.7792696l10.58266742 6.14477481c1.7068822 1.02412959 3.0723874 0.34137699 3.0723874-1.36550661v-10.58266739c0-1.7068822-1.36550521-3.75514-3.0723874-4.7792696l-10.58266742-6.1447748z" fill="#5C4123" p-id="30534"></path><path d="M829.3719903 738.67392201c0 1.7068822-1.02412959 2.38963479-2.73101179 1.70688219v5.12064521l1.70688219 1.02412959v0.68275259l-4.09651561-2.38963479v-0.6827526l1.70688082 1.02412959V740.3808042c-1.36550521-1.02412959-2.38963479-3.0723874-2.73101042-4.7792696v-3.75514001l5.4620222 3.4137644v3.41376302z" fill="#5C4123" p-id="30535"></path><path d="M831.76162511 751.98760119l-10.5826688-6.14477479c-2.04825781-1.02412959-3.75514-3.75514-3.75514-5.8033992v-10.5826674c0-2.04825781 1.7068822-2.73101179 3.75514-1.7068822l10.5826688 6.14477481c2.04825781 1.02412959 3.75514 3.75514 3.75513999 5.80339918v10.58266742c0 2.04825781-1.7068822 2.73101179-3.75513999 1.70688218z m-10.5826688-23.55497098c-1.7068822-1.02412959-3.0723874-0.34137699-3.0723874 1.36550659v10.5826674c0 1.7068822 1.36550521 3.75514 3.0723874 4.77926959l10.5826688 6.14477481c1.7068822 1.02412959 3.0723874 0.34137699 3.07238739-1.36550521v-10.58266879c0-1.7068822-1.36550521-3.75514-3.07238739-4.7792696l-10.5826688-6.14477479z" fill="#5C4123" p-id="30536"></path><path d="M753.92780771 577.8856434v60.7649968l69.64078339 40.28241458-0.34137561-60.76499817z" fill="#E0B477" p-id="30537"></path><path d="M823.22721549 618.16805661l0.34137561 60.76499817 101.38878839-58.71673899V559.45131761z" fill="#BB884F" p-id="30538"></path><path d="M753.92780771 577.8856434l69.29940778 40.28241321 101.730164-58.716739-69.64078339-40.28241322z" fill="#EFCD90" p-id="30539"></path><path d="M882.2853301 534.8722184l14.33780879 8.1930326-101.38878701 58.71673901-14.33780879-8.19303261z" fill="#F7ECEA" p-id="30540"></path><path d="M795.23435188 601.78199001l-14.33780879-8.19303261v14.33780741l14.33780879 8.19303398z" fill="#C2AB9D" p-id="30541"></path><path d="M761.09671211 634.89550019v1.7068822l10.92404439 6.1447748v-1.3655052zM763.1449713 635.5782528l1.3655052 0.68275261v-7.851657l1.36550521 0.68275259-2.04825782-4.09651561-1.70688219 2.04825781 1.0241296 0.6827526zM768.60699349 638.6506402l1.3655052 0.68275259v-7.85165698l1.3655052 0.68275258-2.04825779-4.0965156-1.70688221 2.04825781 1.0241296 0.6827526z" fill="#5C4123" p-id="30542"></path><path d="M772.0207565 645.136792l-10.5826674-6.14477481c-2.04825781-1.02412959-3.75514-3.75514-3.75514001-5.80339918v-10.58266742c0-2.04825781 1.7068822-2.73101179 3.75514001-1.7068822l10.5826674 6.14477481c2.04825781 1.02412959 3.75514 3.75514 3.75514139 5.80339781v10.58266879c0 2.38963479-1.7068822 3.0723874-3.75514139 1.7068822z m-10.5826674-23.55497101c-1.7068822-1.02412959-3.0723874-0.34137699-3.0723874 1.36550521v10.58266879c0 1.7068822 1.36550521 3.75514 3.0723874 4.77926821l10.5826674 6.14477619c1.7068822 1.02412959 3.0723874 0.34137699 3.0723874-1.36550659v-10.5826674c0-1.7068822-1.36550521-3.75514-3.0723874-4.7792696l-10.5826674-6.14477481z" fill="#5C4123" p-id="30543"></path><path d="M794.5515993 648.550555c0-0.34137699-1.02412959-1.02412959-2.38963481-1.70688081-1.36550521-0.68275261-2.38963479-1.02412959-2.38963479-0.68275399 0-0.34137699-0.68275261-1.02412959-1.70688221-1.70688081v6.48615041c0 0.68275261-0.68275261 0.68275261-1.7068822 0.34137698s-1.7068822-1.7068822-1.7068822-2.38963479c0-0.34137699 0-0.34137699 0.34137701-0.34137699s0.34137699 0.34137699 0.3413756 0.68275399 0.34137699 1.02412959 1.02412959 1.36550521c1.02412959 0.68275261 0.68275261-0.68275261 0.68275261-0.68275261v-6.1447748c-1.02412959-0.68275261-1.7068822-0.68275261-1.7068822-0.68275399 0-0.34137699-1.02412959-1.02412959-2.3896348-1.70688081-1.36550521-0.68275261-2.38963479-1.02412959-2.3896348-0.682754 0-2.73101179 3.0723874-3.75514 6.4861518-2.04825779 0-0.34137699 0.34137699-0.34137699 0.341377 0 0.34137699 0 0.34137699 0.34137699 0.3413756 0.68275259 3.75514 2.04825781 6.8275274 6.4861518 6.8275288 9.21716221z" fill="#5C4123" p-id="30544"></path><path d="M792.84471709 657.42634159l-10.58266879-6.14477481c-2.04825781-1.02412959-3.75514-3.75514-3.75514001-5.80339919V634.5541232c0-2.04825781 1.7068822-2.73101179 3.75514001-1.70688219l10.58266879 6.14477618c2.04825781 1.36550521 3.75514 3.75514 3.75514 5.80339782v10.58266879c0 2.38963479-1.7068822 3.0723874-3.75514 2.04825779z m-10.58266879-23.55497099c-1.7068822-1.02412959-3.0723874-0.34137699-3.0723874 1.36550521v10.58266879c0 1.7068822 1.36550521 3.75514 3.0723874 4.7792696l10.58266879 6.1447748c1.7068822 1.02412959 3.0723874 0.34137699 3.0723874-1.3655052V644.79541501c0-1.7068822-1.36550521-3.75514-3.0723874-4.7792696l-10.58266879-6.14477481z" fill="#5C4123" p-id="30545"></path><path d="M811.27904149 656.40221201c0 1.7068822-1.02412959 2.38963479-2.73101041 1.70688219v5.12064658l1.70688083 1.02412823v0.6827526l-4.09651562-2.38963342v-0.68275398l1.70688083 1.02412959v-5.12064521c-1.36550521-1.02412959-2.38963479-3.0723874-2.73101042-4.7792696v-3.75514l5.4620222 3.0723874v4.09651562z" fill="#5C4123" p-id="30546"></path><path d="M814.01005329 669.37451558l-10.58266879-6.1447748c-2.04825781-1.02412959-3.75514-3.75514-3.75514001-5.80339919v-10.5826674c0-2.04825781 1.7068822-2.73101179 3.75514001-1.70688219l10.58266879 6.14477478c2.04825781 1.02412959 3.75514 3.75514 3.75514 5.80339784v10.58266877c0 2.38963479-1.7068822 3.0723874-3.75514 1.70688219z m-10.58266879-23.55497098c-1.7068822-1.02412959-3.0723874-0.34137699-3.0723874 1.3655052v10.58266879c0 1.7068822 1.36550521 3.75514 3.0723874 4.7792696l10.58266879 6.14477481c1.7068822 1.02412959 3.0723874 0.34137699 3.0723874-1.36550658v-10.58266742c0-1.7068822-1.36550521-3.75514-3.0723874-4.7792696l-10.58266879-6.1447748z" fill="#5C4123" p-id="30547"></path><path d="M1003.1325725 733.55327679V310.24655421l-485.095849 280.27001578v423.30672122l42.33067239-24.57909923V672.10552601l411.35854861-237.59796642v317.138666" fill="#bfbfbf" p-id="30548"></path><path d="M1003.1325725 310.24655421l-485.095849 280.27001578v-9.21716358l485.095849-280.27001441z" fill="#E0E0E0" p-id="30549"></path><path d="M32.9408745 310.24655421l485.095849 280.27001578v423.30672122L32.9408745 733.55327679z" fill="#bfbfbf" p-id="30550"></path><path d="M202.94631669 516.7792696v-69.6407834l59.05811461 34.4790154v69.2994064z" fill="#FFFFFF" p-id="30551"></path><path d="M210.11522109 512.68275261l44.7203072 25.94460578v-52.91333979l-44.7203072-25.94460581z" fill="#0F2E42" p-id="30552"></path><path d="M128.86764069 473.76584461v-69.29940781l59.05811461 34.1376398v69.29940641z" fill="#FFFFFF" p-id="30553"></path><path d="M136.03654509 469.66932761l44.72030581 25.94460579v-52.91333981l-44.72030581-25.94460579z" fill="#0F2E42" p-id="30554"></path><path d="M54.7889633 431.0937952v-69.29940639l59.05811601 34.1376384v69.29940778z" fill="#FFFFFF" p-id="30555"></path><path d="M61.9578677 426.99727959l44.72030721 25.94460581v-52.9133412l-44.72030721-25.94460579z" fill="#0F2E42" p-id="30556"></path><path d="M32.9408745 310.24655421l485.095849 280.27001578v-9.21716358L32.9408745 301.029392z" fill="#E0E0E0" p-id="30557"></path><path d="M518.0367235 581.29940641L32.9408745 301.029392l485.095849-279.92863881 485.095849 279.92863881z" fill="#FFFFFF" p-id="30558"></path><path d="M85.85421569 301.029392l432.18250781-249.54614039 432.18250781 249.54614039-432.18250781 249.54614038z" fill="#E0E0E0" p-id="30559"></path><path d="M85.85421569 301.029392l34.13763841 20.1412066 396.67936418-229.0635568V52.50738119z" fill="#C4C4C4" p-id="30560"></path><path d="M518.0367235 51.48325161l-1.36550522 1.02412958v39.59966061l1.36550522-0.68275259 397.70349378 229.74630939 34.47901403-20.1412066z" fill="#999999" p-id="30561"></path><path d="M586.99475429 525.3136792l-10.9240444-6.14477481-0.34137698-71.68904258 10.92404438 6.14477617z" fill="#FF7A4A" p-id="30562"></path><path d="M586.65337729 453.62463798l-10.92404438-6.14477617 312.35939639-180.2467326 10.92404439 6.14477479z" fill="#FF8E3D" p-id="30563"></path><path d="M899.01277369 273.377904v71.68904122L586.99475429 525.3136792l-0.341377-71.68904122z" fill="#FF5B1F" p-id="30564"></path></svg>