<?xml version="1.0" encoding="UTF-8" standalone="no"?>
<svg
   t="1683827703217"
   class="icon"
   viewBox="0 0 1024 1024"
   version="1.1"
   p-id="6839"
   data-spm-anchor-id="a313x.7781069.0.i0"
   width="300"
   height="300"
   id="svg166"
   sodipodi:docname="仓库2.svg"
   inkscape:version="1.2.2 (732a01da63, 2022-12-09)"
   xmlns:inkscape="http://www.inkscape.org/namespaces/inkscape"
   xmlns:sodipodi="http://sodipodi.sourceforge.net/DTD/sodipodi-0.dtd"
   xmlns="http://www.w3.org/2000/svg"
   xmlns:svg="http://www.w3.org/2000/svg">
  <defs
     id="defs170" />
  <sodipodi:namedview
     id="namedview168"
     pagecolor="#ffffff"
     bordercolor="#000000"
     borderopacity="0.25"
     inkscape:showpageshadow="2"
     inkscape:pageopacity="0.0"
     inkscape:pagecheckerboard="0"
     inkscape:deskcolor="#d1d1d1"
     showgrid="false"
     inkscape:zoom="3.4233333"
     inkscape:cx="149.85394"
     inkscape:cy="149.85394"
     inkscape:window-width="2560"
     inkscape:window-height="1369"
     inkscape:window-x="1072"
     inkscape:window-y="-8"
     inkscape:window-maximized="1"
     inkscape:current-layer="svg166" />
  <path
     d="m 741.43886,724.92197 -0.34405,55.78489 -69.84309,37.29441 v -55.7849 z"
     fill="#bb884f"
     p-id="6840"
     id="path2"
     style="stroke-width:1.32822" />
  <path
     d="m 671.25172,762.21637 v 55.7849 l -102.52826,-53.90451 0.34405,-55.78491 z"
     fill="#e0b477"
     p-id="6841"
     id="path4"
     style="stroke-width:1.32822" />
  <path
     d="m 741.43886,724.92197 -70.18714,37.2944 -102.18421,-53.90452 69.84309,-37.2944 z"
     fill="#efcd90"
     p-id="6842"
     id="path6"
     style="stroke-width:1.32822" />
  <path
     d="m 611.73028,685.74717 -14.45029,7.52157 102.18421,53.9045 14.45029,-7.83496 z"
     fill="#f7ecea"
     p-id="6843"
     id="path8"
     style="stroke-width:1.32822" />
  <path
     d="m 699.4642,747.17324 14.45029,-7.83496 v 13.47614 l -14.45029,7.52156 z"
     fill="#c2ab9d"
     p-id="6844"
     id="path10"
     style="stroke-width:1.32822" />
  <path
     d="m 733.86966,777.57289 v 1.25359 l -11.00975,5.64117 v -1.2536 z m -2.06433,0.31339 -1.37622,0.6268 v -6.89476 l -1.03216,0.62679 1.72028,-4.07417 2.06431,2.19378 -1.37621,0.6268 z m -5.50487,2.82058 -1.37622,0.6268 v -6.89476 l -1.03217,0.6268 1.72028,-3.76079 2.06432,1.8804 -1.37621,0.62679 z"
     fill="#5c4123"
     p-id="6845"
     id="path12"
     style="stroke-width:1.32822" />
  <path
     d="m 719.41937,785.40784 v -9.71535 c 0,-1.88039 1.72026,-4.38758 3.78459,-5.32777 l 10.6657,-5.64116 c 2.06432,-0.9402 3.78459,-0.31341 3.78459,1.56699 v 9.71534 c 0,1.88039 -1.72027,4.38758 -3.78459,5.32777 l -10.6657,5.64118 c -2.06433,0.94019 -3.78459,0.31339 -3.78459,-1.567 z m 3.78459,-14.41632 c -1.72027,0.94019 -3.09648,2.82058 -3.09648,4.38757 v 9.71535 c 0,1.56699 1.37621,1.8804 3.09648,1.2536 l 10.6657,-5.64118 c 1.72027,-0.94019 3.09649,-2.82058 3.09649,-4.38757 v -9.71535 c 0,-1.56699 -1.37622,-1.88038 -3.09649,-1.2536 z m -22.70759,18.8039 c 0,-0.31341 1.03216,-0.94019 2.40838,-1.56699 1.37621,-0.6268 2.40838,-0.9402 2.40838,-0.6268 0,-0.3134 0.68811,-0.9402 1.72027,-1.567 v 5.95457 c 0,0.6268 0.68811,0.6268 1.72027,0.31341 1.03217,-0.31341 1.72028,-1.567 1.72028,-2.1938 0,-0.31339 0,-0.31339 -0.34405,-0.31339 -0.34407,0 -0.34407,0.31339 -0.34406,0.6268 0,0.31339 -0.34406,0.94019 -1.03217,1.25359 -1.03216,0.6268 -0.6881,-0.6268 -0.6881,-0.6268 v -5.64117 c 1.03215,-0.62679 1.72027,-0.62679 1.72027,-0.62679 0,-0.3134 1.03216,-0.9402 2.40838,-1.567 1.37622,-0.62679 2.40839,-0.94019 2.40839,-0.6268 0,-2.50719 -3.0965,-3.44738 -6.53704,-1.88039 0,-0.31339 -0.34406,-0.31339 -0.34406,0 -0.34406,0 -0.68811,0.31341 -0.68811,0.6268 -3.7846,2.1938 -6.53703,5.95457 -6.53703,8.46176 -0.34407,0 -0.34407,0 0,0 z"
     fill="#5c4123"
     p-id="6846"
     id="path14"
     style="stroke-width:1.32822" />
  <path
     d="m 698.08799,796.69018 v -9.71534 c 0,-1.8804 1.72026,-4.38759 3.78459,-5.32778 l 10.6657,-5.64117 c 2.06431,-0.94019 3.78459,-0.3134 3.78459,1.567 v 9.71534 c 0,1.88039 -1.72028,4.38758 -3.78459,5.32777 l -10.6657,5.64118 c -2.06433,0.94019 -3.78459,0.31339 -3.78459,-1.567 z m 3.78459,-14.72972 c -1.72028,0.9402 -3.09649,2.82059 -3.09649,4.38758 v 9.71534 c 0,1.567 1.37621,1.88039 3.09649,1.2536 l 10.6657,-5.64117 c 1.72026,-0.9402 3.09648,-2.82058 3.09648,-4.38758 v -9.71534 c 0,-1.567 -1.37622,-1.8804 -3.09648,-1.2536 z m -18.57895,15.04312 c 0,1.56699 1.03217,2.19379 2.75245,1.56699 v 4.70098 l -1.72028,0.9402 v 0.62678 l 4.12866,-2.19378 v -0.6268 l -1.72028,0.9402 v -4.70097 c 1.37621,-0.9402 2.40838,-2.8206 2.75244,-4.38758 v -3.44738 l -5.50487,3.13398 v 3.44738 z"
     fill="#5c4123"
     p-id="6847"
     id="path16"
     style="stroke-width:1.32822" />
  <path
     d="m 677.10065,807.65913 v -9.71536 c 0,-1.88039 1.72027,-4.38757 3.7846,-5.32777 l 10.6657,-5.64116 c 2.06432,-0.94021 3.78459,-0.31341 3.78459,1.56698 v 9.71536 c 0,1.88039 -1.72027,4.38757 -3.78459,5.32777 l -10.6657,5.64116 c -2.06433,0.94019 -3.7846,0.31341 -3.7846,-1.56698 z m 3.7846,-14.41633 c -1.72027,0.9402 -3.09649,2.82058 -3.09649,4.38758 v 9.71534 c 0,1.567 1.37622,1.88039 3.09649,1.2536 l 10.6657,-5.64117 c 1.72027,-0.9402 3.09648,-2.82058 3.09648,-4.38758 v -9.71534 c 0,-1.567 -1.37621,-1.88039 -3.09648,-1.2536 z"
     fill="#5c4123"
     p-id="6848"
     id="path18"
     style="stroke-width:1.32822" />
  <path
     d="m 647.85601,779.13987 v 55.78491 l -70.18713,36.981 0.34405,-55.78491 z"
     fill="#bb884f"
     p-id="6849"
     id="path20"
     style="stroke-width:1.32822" />
  <path
     d="m 578.01293,816.12087 -0.34405,55.78491 -102.18421,-53.59111 v -56.0983 z"
     fill="#e0b477"
     p-id="6850"
     id="path22"
     style="stroke-width:1.32822" />
  <path
     d="m 647.85601,779.13987 -69.84308,36.981 -102.52826,-53.9045 70.18713,-36.98101 z"
     fill="#efcd90"
     p-id="6851"
     id="path24"
     style="stroke-width:1.32822" />
  <path
     d="m 518.49149,739.65169 -14.45029,7.83496 102.18421,53.59111 14.45029,-7.52156 z"
     fill="#f7ecea"
     p-id="6852"
     id="path26"
     style="stroke-width:1.32822" />
  <path
     d="m 606.22541,801.07776 14.45029,-7.52156 v 13.16272 l -14.45029,7.83497 z"
     fill="#c2ab9d"
     p-id="6853"
     id="path28"
     style="stroke-width:1.32822" />
  <path
     d="m 640.63086,831.7908 v 1.25359 l -11.00974,5.64117 v -1.2536 z m -2.06433,0.31339 -1.37621,0.6268 v -7.20817 l -1.03217,0.6268 1.72028,-3.76077 1.72027,1.88039 -1.03217,0.6268 z m -5.50487,2.82059 -1.37621,0.62679 v -6.89476 l -1.03217,0.6268 1.72028,-4.07418 1.72027,1.88039 -1.03217,0.94019 z"
     fill="#5c4123"
     p-id="6854"
     id="path30"
     style="stroke-width:1.32822" />
  <path
     d="m 625.83652,839.62576 v -9.71536 c 0,-1.88039 1.72027,-4.38758 3.7846,-5.32777 l 10.66569,-5.64116 c 2.06433,-0.9402 3.7846,-0.31341 3.7846,1.56699 v 9.71535 c 0,1.88038 -1.72027,4.38757 -3.7846,5.32776 l -10.66569,5.64118 c -2.06433,0.94019 -3.7846,0.31339 -3.7846,-1.56699 z m 3.7846,-14.72972 c -1.72027,0.94019 -3.0965,2.82058 -3.0965,4.38757 v 9.71535 c 0,1.56699 1.37623,1.88038 3.0965,1.25358 l 10.66569,-5.64116 c 1.72027,-0.94019 3.09649,-2.82058 3.09649,-4.38757 v -9.71535 c 0,-1.56699 -1.37622,-1.8804 -3.09649,-1.2536 z"
     fill="#5c4123"
     p-id="6855"
     id="path32"
     style="stroke-width:1.32822" />
  <path
     d="m 606.91351,844.01333 c 0,0 0.34406,0 0,0 0,-0.3134 1.03217,-0.94019 2.40839,-1.56699 1.37622,-0.6268 2.40838,-0.9402 2.40838,-0.6268 0,-0.3134 0.6881,-0.9402 1.72027,-1.567 v 5.95457 c 0,0.6268 0.68811,0.6268 1.72028,0.31341 1.03216,-0.31341 1.72026,-1.56699 1.72026,-2.19379 0,-0.3134 0,-0.3134 -0.34405,-0.3134 -0.34405,0 -0.34405,0.3134 -0.34405,0.6268 0,0.3134 -0.34405,0.9402 -1.03216,1.25359 -1.03217,0.6268 -1.03217,-0.6268 -1.03217,-0.6268 v -5.64116 c 1.03217,-0.6268 1.72028,-0.6268 1.72028,-0.6268 0,-0.3134 1.03215,-0.9402 2.40838,-1.567 1.37621,-0.6268 2.40838,-0.94019 2.40838,-0.6268 0,-2.50718 -3.09649,-3.44738 -6.53704,-1.88038 0,-0.3134 -0.34405,-0.3134 -0.34405,0 -0.34406,0 -0.34406,0.3134 -0.34406,0.62679 -3.44055,1.88039 -6.53704,5.95457 -6.53704,8.46176 z"
     fill="#5c4123"
     p-id="6856"
     id="path34"
     style="stroke-width:1.32822" />
  <path
     d="m 604.84918,850.59469 v -9.71535 c 0,-1.88038 1.72028,-4.38757 3.78461,-5.32777 l 10.66569,-5.64117 c 2.06433,-0.94019 3.7846,-0.31339 3.7846,1.56699 v 9.71536 c 0,1.88039 -1.72027,4.38758 -3.7846,5.32777 l -10.66569,5.64116 c -2.06433,0.9402 -3.78461,0.31341 -3.78461,-1.56699 z m 3.78461,-14.41632 c -1.72028,0.9402 -3.09649,2.82059 -3.09649,4.38758 v 9.71535 c 0,1.56699 1.37621,1.88038 3.09649,1.25358 l 10.66569,-5.64116 c 1.72027,-0.94019 3.0965,-2.82058 3.0965,-4.38758 v -9.71534 c 0,-1.56699 -1.37623,-1.8804 -3.0965,-1.2536 z"
     fill="#5c4123"
     p-id="6857"
     id="path36"
     style="stroke-width:1.32822" />
  <path
     d="m 590.05484,851.22149 c 0,1.56699 1.03216,2.19379 2.75244,1.56699 v 4.70097 l -1.72028,0.94021 v 0.62679 l 4.12866,-2.19379 v -0.6268 l -1.72028,0.9402 v -4.70097 c 1.37622,-0.94021 2.40838,-2.82059 2.75245,-4.38759 v -3.44737 l -5.84894,3.13398 v 3.44738 z"
     fill="#5c4123"
     p-id="6858"
     id="path38"
     style="stroke-width:1.32822" />
  <path
     d="m 583.5178,861.87704 v -9.71536 c 0,-1.88038 1.72028,-4.38757 3.78461,-5.32777 l 10.66568,-5.64116 c 2.06433,-0.94021 3.78461,-0.31341 3.78461,1.56698 v 9.71536 c 0,1.88039 -1.72028,4.38757 -3.78461,5.32777 l -10.66568,5.64116 c -2.06433,0.94021 -3.78461,0.31341 -3.78461,-1.56698 z m 3.78461,-14.72973 c -1.72028,0.9402 -3.0965,2.82059 -3.0965,4.38757 v 9.71536 c 0,1.56699 1.37622,1.88039 3.0965,1.25359 l 10.66568,-5.64117 c 1.72028,-0.94019 3.0965,-2.82059 3.0965,-4.38757 v -9.71536 c 0,-1.56698 -1.37622,-1.88039 -3.0965,-1.25359 z"
     fill="#5c4123"
     p-id="6859"
     id="path40"
     style="stroke-width:1.32822" />
  <path
     d="m 691.20689,692.01514 -0.34405,55.7849 -70.18714,37.2944 0.34405,-55.78489 z"
     fill="#a67946"
     p-id="6860"
     id="path42"
     style="stroke-width:1.32822" />
  <path
     d="m 621.01975,729.30955 -0.34405,55.78489 -102.18421,-53.90451 0.34405,-55.7849 z"
     fill="#e0b477"
     p-id="6861"
     id="path44"
     style="stroke-width:1.32822" />
  <path
     d="m 691.20689,692.01514 -70.18714,37.29441 -102.18421,-53.90452 69.84308,-37.2944 z"
     fill="#efcd90"
     p-id="6862"
     id="path46"
     style="stroke-width:1.32822" />
  <path
     d="m 561.49831,652.84035 -14.45029,7.52156 102.18421,53.90451 14.45029,-7.83496 z"
     fill="#f7ecea"
     p-id="6863"
     id="path48"
     style="stroke-width:1.32822" />
  <path
     d="m 649.23223,714.26642 14.45029,-7.83496 v 13.47613 l -14.45029,7.52156 z"
     fill="#c2ab9d"
     p-id="6864"
     id="path50"
     style="stroke-width:1.32822" />
  <path
     d="m 683.63768,744.66605 v 1.2536 l -11.00974,5.95457 v -1.56699 z m -2.06431,0.31341 -1.37623,0.6268 v -6.89476 l -1.03216,0.62678 1.72027,-4.07418 1.72027,2.1938 -1.03215,0.6268 z m -5.50489,2.82058 -1.37621,0.6268 v -6.89476 l -1.03217,0.6268 1.72028,-3.76079 1.72027,1.88039 -1.03217,0.6268 z"
     fill="#5c4123"
     p-id="6865"
     id="path52"
     style="stroke-width:1.32822" />
  <path
     d="m 669.18739,752.50101 v -9.71534 c 0,-1.88039 1.72028,-4.38758 3.78461,-5.32777 l 10.66568,-5.64118 c 2.06433,-0.94019 3.78461,-0.31339 3.78461,1.567 v 9.71535 c 0,1.88039 -1.72028,4.38758 -3.78461,5.32777 L 672.972,754.068 c -2.40839,0.9402 -3.78461,0.31341 -3.78461,-1.56699 z m 3.44055,-14.41631 c -1.72027,0.94019 -3.09648,2.82058 -3.09648,4.38757 v 9.71535 c 0,1.56699 1.37621,1.88038 3.09648,1.2536 l 10.66569,-5.64118 c 1.72028,-0.94019 3.0965,-2.82058 3.0965,-4.38757 v -9.71535 c 0,-1.56699 -1.37622,-1.88039 -3.0965,-1.2536 z"
     fill="#5c4123"
     p-id="6866"
     id="path54"
     style="stroke-width:1.32822" />
  <path
     d="m 649.92034,756.8886 c 0.34405,0 0.34405,0 0,0 0,-0.31341 1.03217,-0.94021 2.40838,-1.567 1.37622,-0.6268 2.40838,-0.94019 2.40838,-0.6268 0,-0.31339 0.68812,-0.94019 1.72028,-1.56699 v 5.95457 c 0,0.6268 0.6881,0.6268 1.72027,0.31341 1.03216,-0.31341 1.72027,-1.567 1.72027,-2.1938 0,-0.31339 0,-0.31339 -0.34406,-0.31339 -0.34405,0 -0.34405,0.31339 -0.34405,0.62679 0,0.3134 -0.34405,0.94019 -1.03216,1.2536 -1.03217,0.6268 -0.68812,-0.6268 -0.68812,-0.6268 v -5.64118 c 1.03217,-0.62679 1.72028,-0.62679 1.72028,-0.62679 0,-0.3134 1.03217,-0.94019 2.40838,-1.56699 1.37623,-0.6268 2.40838,-0.94019 2.40838,-0.6268 0,-2.50719 -3.09648,-3.44738 -6.53704,-1.88039 0,-0.31339 -0.34405,-0.31339 -0.34405,0 -0.34405,0 -0.34405,0.3134 -0.34405,0.6268 -3.78459,2.19378 -6.53704,5.95457 -6.88109,8.46176 z"
     fill="#5c4123"
     p-id="6867"
     id="path56"
     style="stroke-width:1.32822" />
  <path
     d="M 647.85601,763.78336 V 754.068 c 0,-1.88038 1.72027,-4.38757 3.7846,-5.32776 l 10.66569,-5.64117 c 2.06433,-0.9402 3.7846,-0.3134 3.7846,1.56698 v 9.71536 c 0,1.88039 -1.72027,4.38758 -3.7846,5.32777 l -10.66569,5.64116 c -2.06433,0.94021 -3.7846,0.31341 -3.7846,-1.56698 z m 3.7846,-14.72973 c -1.72027,0.9402 -3.09649,2.82059 -3.09649,4.38759 v 9.71534 c 0,1.567 1.37622,1.88039 3.09649,1.25359 l 10.66569,-5.64116 c 1.72027,-0.9402 3.0965,-2.82059 3.0965,-4.38758 v -9.71536 c 0,-1.56698 -1.37623,-1.88038 -3.0965,-1.25358 z"
     fill="#5c4123"
     p-id="6868"
     id="path58"
     style="stroke-width:1.32822" />
  <path
     d="m 633.06166,764.09676 c 0,1.56699 1.03217,2.19379 2.75244,1.56699 v 4.70097 l -1.72027,0.94019 v 0.6268 l 4.12865,-2.19379 v -0.62679 l -1.72027,0.94019 v -4.70098 c 1.37622,-0.94019 2.40839,-2.82058 2.75244,-4.38757 v -3.44738 l -5.50488,3.13398 v 3.44739 z"
     fill="#5c4123"
     p-id="6869"
     id="path60"
     style="stroke-width:1.32822" />
  <path
     d="m 626.86869,774.75229 v -9.71534 c 0,-1.88039 1.72026,-4.38758 3.78459,-5.32777 l 10.6657,-5.64118 c 2.06432,-0.94019 3.78459,-0.31339 3.78459,1.567 v 9.71534 c 0,1.8804 -1.72027,4.38758 -3.78459,5.32778 l -10.6657,5.64117 c -2.40838,0.94019 -3.78459,0.3134 -3.78459,-1.567 z m 3.44054,-14.41631 c -1.72028,0.94019 -3.09649,2.82058 -3.09649,4.38758 v 9.71534 c 0,1.56699 1.37621,1.88039 3.09649,1.25359 l 10.66568,-5.64117 c 1.72028,-0.94019 3.0965,-2.82058 3.0965,-4.38757 v -9.71535 c 0,-1.56699 -1.37622,-1.8804 -3.0965,-1.2536 z"
     fill="#5c4123"
     p-id="6870"
     id="path62"
     style="stroke-width:1.32822" />
  <path
     d="M 511.6104,61.144305 1000.512,318.13093 V 706.74486 L 511.6104,449.75823 Z"
     fill="#16212e"
     p-id="6871"
     id="path64"
     style="stroke-width:1.32822" />
  <path
     d="m 678.82092,583.57931 v 55.78491 l 70.18714,36.981 -0.34405,-55.7849 z"
     fill="#e0b477"
     p-id="6872"
     id="path66"
     style="stroke-width:1.32822" />
  <path
     d="m 748.66401,620.56032 0.34405,55.7849 102.18421,-53.9045 v -55.78491 z"
     fill="#bb884f"
     p-id="6873"
     id="path68"
     style="stroke-width:1.32822" />
  <path
     d="m 678.82092,583.57931 69.84309,36.98101 102.52826,-53.90451 -70.18713,-36.981 z"
     fill="#efcd90"
     p-id="6874"
     id="path70"
     style="stroke-width:1.32822" />
  <path
     d="m 808.18545,544.09113 14.79434,7.83496 -102.52826,53.59111 -14.45029,-7.52156 z"
     fill="#f7ecea"
     p-id="6875"
     id="path72"
     style="stroke-width:1.32822" />
  <path
     d="m 720.45153,605.5172 -14.45029,-7.52156 v 13.16273 l 14.45029,7.83495 z"
     fill="#c2ab9d"
     p-id="6876"
     id="path74"
     style="stroke-width:1.32822" />
  <path
     d="m 686.04608,635.91684 v 1.56699 l 11.00974,5.64118 v -1.2536 z m 2.40838,0.6268 1.03216,0.6268 v -7.20817 l 1.37622,0.6268 -2.06433,-3.76078 -1.72028,1.88039 1.37623,0.62679 z m 5.16081,2.82058 1.37622,0.6268 v -7.20817 l 1.37622,0.9402 -2.06433,-4.07418 -1.72028,1.88039 1.03217,0.6268 z"
     fill="#5c4123"
     p-id="6877"
     id="path76"
     style="stroke-width:1.32822" />
  <path
     d="m 697.05582,645.31879 -10.66569,-5.64117 c -2.06433,-0.9402 -3.78461,-3.44738 -3.78461,-5.32778 v -9.71534 c 0,-1.88039 1.72028,-2.50719 3.78461,-1.567 l 10.66569,5.64118 c 2.06432,0.94019 3.7846,3.44738 3.7846,5.32777 v 9.71534 c 0,2.1938 -1.72028,2.82059 -3.7846,1.567 z M 686.39013,623.6943 c -1.72028,-0.94019 -3.0965,-0.31339 -3.0965,1.25359 v 9.71536 c 0,1.56698 1.37622,3.44738 3.0965,4.38757 l 10.66569,5.64117 c 1.72027,0.94019 3.09648,0.3134 3.09648,-1.25359 v -9.71535 c 0,-1.56699 -1.37621,-3.44738 -3.09648,-4.38758 z"
     fill="#5c4123"
     p-id="6878"
     id="path78"
     style="stroke-width:1.32822" />
  <path
     d="m 719.76342,648.45277 c 0,-0.3134 -1.03217,-0.94019 -2.40838,-1.88039 -1.37622,-0.62679 -2.40838,-0.9402 -2.40838,-0.62679 0,-0.31341 -0.68812,-0.9402 -1.72028,-1.567 v 5.95457 c 0,0.6268 -0.6881,0.6268 -1.72027,0.3134 -1.03216,-0.3134 -1.72027,-1.567 -1.72027,-2.19379 0,-0.3134 0,-0.3134 0.34406,-0.3134 0.34405,0 0.34405,0.3134 0.34405,0.6268 0,0.31339 0.34405,0.94019 1.03216,1.25359 1.03217,0.6268 1.03217,-0.62679 1.03217,-0.62679 v -5.64118 c -1.03217,-0.62678 -1.72028,-0.62678 -1.72028,-0.62678 0,-0.31341 -1.03217,-0.94021 -2.40838,-1.567 -1.37622,-0.6268 -2.40838,-0.94019 -2.40838,-0.6268 0,-2.50719 3.09648,-3.44738 6.53704,-1.88039 0,-0.3134 0.34405,-0.3134 0.34405,0 0.34405,0 0.34405,0.3134 0.34405,0.6268 3.44054,2.19379 6.53704,6.26797 6.53704,8.77515 z"
     fill="#5c4123"
     p-id="6879"
     id="path80"
     style="stroke-width:1.32822" />
  <path
     d="m 718.04315,656.60113 -10.66569,-5.64117 c -2.06433,-0.9402 -3.7846,-3.44738 -3.7846,-5.32778 v -9.71534 c 0,-1.88039 1.72027,-2.50719 3.7846,-1.567 l 10.66569,5.64118 c 2.06433,0.94019 3.7846,3.44738 3.7846,5.32777 v 9.71534 c 0,1.88039 -1.72027,2.50719 -3.7846,1.567 z m -10.66569,-21.62449 c -1.72028,-0.94019 -3.0965,-0.31339 -3.0965,1.25359 v 9.71536 c 0,1.56699 1.37622,3.44738 3.0965,4.38757 l 10.66569,5.64117 c 1.72027,0.9402 3.09648,0.3134 3.09648,-1.25359 v -9.71535 c 0,-1.56699 -1.37621,-3.44738 -3.09648,-4.38757 z"
     fill="#5c4123"
     p-id="6880"
     id="path82"
     style="stroke-width:1.32822" />
  <path
     d="m 736.96615,655.66093 c 0,1.567 -1.03217,2.1938 -2.75244,1.567 v 4.70097 l 1.72028,0.94019 v 0.6268 l -4.12866,-2.19378 v -0.6268 l 1.72028,0.94019 v -4.70098 c -1.37622,-0.94019 -2.40838,-2.82058 -2.75245,-4.38758 v -3.44738 l 5.84894,3.13399 v 3.44738 z"
     fill="#5c4123"
     p-id="6881"
     id="path84"
     style="stroke-width:1.32822" />
  <path
     d="m 739.37453,667.57007 -10.66568,-5.64117 c -2.06433,-1.25359 -3.78461,-3.44739 -3.78461,-5.32777 v -9.71535 c 0,-1.88039 1.72028,-2.50719 3.78461,-1.56699 l 10.66568,5.64117 c 2.06433,0.9402 3.78461,3.44738 3.78461,5.32777 v 9.71535 c 0,2.19379 -1.72028,2.82058 -3.78461,1.56699 z m -10.66568,-21.62448 c -1.72028,-0.9402 -3.0965,-0.31341 -3.0965,1.25359 v 9.71534 c 0,1.56699 1.37622,3.44738 3.0965,4.38759 l 10.66568,5.64116 c 1.72028,0.9402 3.09649,0.31341 3.09649,-1.25359 v -9.71535 c 0,-1.56699 -1.37621,-3.44739 -3.09649,-4.38758 z"
     fill="#5c4123"
     p-id="6882"
     id="path86"
     style="stroke-width:1.32822" />
  <path
     d="m 772.05972,637.48383 0.34405,55.78491 69.84308,37.29439 v -55.7849 z"
     fill="#e0b477"
     p-id="6883"
     id="path88"
     style="stroke-width:1.32822" />
  <path
     d="m 842.24685,674.77823 v 55.7849 l 102.52827,-53.90451 -0.34405,-55.7849 z"
     fill="#bb884f"
     p-id="6884"
     id="path90"
     style="stroke-width:1.32822" />
  <path
     d="m 772.05972,637.48383 70.18713,37.2944 102.18422,-53.90451 -70.18714,-36.981 z"
     fill="#efcd90"
     p-id="6885"
     id="path92"
     style="stroke-width:1.32822" />
  <path
     d="m 901.7683,598.30903 14.45029,7.52157 -102.52827,53.90451 -14.45029,-7.83495 z"
     fill="#f7ecea"
     p-id="6886"
     id="path94"
     style="stroke-width:1.32822" />
  <path
     d="m 813.69032,659.73511 -14.45029,-7.83495 v 13.47612 l 14.45029,7.52156 z"
     fill="#c2ab9d"
     p-id="6887"
     id="path96"
     style="stroke-width:1.32822" />
  <path
     d="m 779.62892,690.13475 v 1.25359 l 10.6657,5.95457 v -1.56699 z m 2.06433,0.31339 1.03216,0.6268 v -6.89476 l 1.37622,0.6268 -1.72028,-3.76078 -2.06433,1.88039 1.37623,0.62679 z m 5.50487,2.8206 1.03217,0.62678 v -6.89476 l 1.37621,0.6268 -1.72027,-3.76078 -2.06432,1.88039 1.37621,0.6268 z"
     fill="#5c4123"
     p-id="6888"
     id="path98"
     style="stroke-width:1.32822" />
  <path
     d="m 790.29462,699.5367 -10.6657,-5.64118 c -2.06433,-0.94019 -3.78461,-3.44738 -3.78461,-5.32777 v -9.71534 c 0,-1.88039 1.72028,-2.50719 3.78461,-1.56699 l 10.6657,5.64117 c 2.06431,0.94019 3.78459,3.44738 3.78459,5.32777 v 9.71535 c 0,1.88038 -1.72028,2.50718 -3.78459,1.56699 z m -10.6657,-21.62448 c -1.72028,-0.9402 -3.09649,-0.31341 -3.09649,1.25358 v 9.71536 c 0,1.56698 1.37621,3.44738 3.09649,4.38758 l 10.6657,5.64116 c 1.72026,0.94019 3.09648,0.3134 3.09648,-1.25359 v -9.71536 c 0,-1.56698 -1.37622,-3.44737 -3.09648,-4.38757 z"
     fill="#5c4123"
     p-id="6889"
     id="path100"
     style="stroke-width:1.32822" />
  <path
     d="m 813.00221,702.35728 c 0,-0.31339 -1.03216,-0.94019 -2.40838,-1.56699 -1.37621,-0.62679 -2.40838,-0.9402 -2.40838,-0.62679 0,-0.31341 -0.68811,-0.9402 -1.72028,-1.56699 v 5.95456 c 0,0.6268 -0.6881,0.6268 -1.72026,0.3134 -1.03217,-0.3134 -1.72028,-1.567 -1.72028,-2.19378 0,-0.31341 0,-0.31341 0.34405,-0.31341 0.34406,0 0.34406,0.31341 0.34406,0.6268 0,0.31339 0.34405,0.94019 1.03217,1.2536 1.03216,0.62679 1.03216,-0.6268 1.03216,-0.6268 v -5.64117 c -1.03216,-0.6268 -1.72028,-0.6268 -1.72028,-0.6268 0,-0.3134 -1.03216,-0.9402 -2.40838,-1.56699 -1.37621,-0.6268 -2.40838,-0.9402 -2.40838,-0.6268 0,-2.50718 3.0965,-3.44738 6.53704,-1.88038 0,-0.31341 0.34405,-0.31341 0.34405,0 0.34405,0 0.34405,0.31339 0.34405,0.62678 3.78461,2.1938 6.53704,5.95457 6.53704,8.46176 0,0.31341 0,0.31341 0,0 z"
     fill="#5c4123"
     p-id="6890"
     id="path102"
     style="stroke-width:1.32822" />
  <path
     d="m 811.626,710.50564 -10.6657,-5.64117 c -2.06433,-0.9402 -3.7846,-3.44738 -3.7846,-5.32777 v -9.71535 c 0,-1.88038 1.72027,-2.50718 3.7846,-1.56699 l 10.6657,5.64116 c 2.06432,0.94021 3.78459,3.44739 3.78459,5.32778 v 9.71535 c 0,2.19378 -1.72027,2.82058 -3.78459,1.56699 z m -11.00975,-21.62448 c -1.72028,-0.94021 -3.09649,-0.31341 -3.09649,1.25359 v 9.71534 c 0,1.567 1.37621,3.44738 3.09649,4.38759 l 10.66569,5.64116 c 1.72027,0.9402 3.0965,0.3134 3.0965,-1.25358 v -9.71536 c 0,-1.56699 -1.37623,-3.44738 -3.0965,-4.38758 z"
     fill="#5c4123"
     p-id="6891"
     id="path104"
     style="stroke-width:1.32822" />
  <path
     d="m 830.20494,709.56545 c 0,1.56698 -1.03216,2.19378 -2.75244,1.56698 v 4.70098 l 1.72028,0.9402 v 0.6268 l -4.12866,-2.1938 v -0.6268 l 1.72028,0.94021 v -4.38759 c -1.37623,-0.94019 -2.40838,-2.82058 -2.75244,-4.38757 v -3.44739 l 5.50487,3.13399 v 3.13399 z"
     fill="#5c4123"
     p-id="6892"
     id="path106"
     style="stroke-width:1.32822" />
  <path
     d="m 832.61332,721.78798 -10.66569,-5.64117 c -2.06433,-0.9402 -3.7846,-3.44738 -3.7846,-5.32777 v -9.71535 c 0,-1.88039 1.72027,-2.50718 3.7846,-1.56699 l 10.66569,5.64117 c 2.06433,0.9402 3.78461,3.44739 3.78461,5.32777 v 9.71535 c 0,1.88039 -1.72028,2.50719 -3.78461,1.56699 z M 821.94763,700.1635 c -1.72027,-0.9402 -3.09648,-0.31341 -3.09648,1.25359 v 9.71534 c 0,1.567 1.37621,3.44738 3.09648,4.38759 l 10.66569,5.64116 c 1.72028,0.9402 3.0965,0.31341 3.0965,-1.25359 v -9.71535 c 0,-1.56698 -1.37622,-3.44738 -3.0965,-4.38758 z"
     fill="#5c4123"
     p-id="6893"
     id="path108"
     style="stroke-width:1.32822" />
  <path
     d="m 754.16888,561.95483 v 55.7849 l 70.18714,36.98101 -0.34406,-55.78491 z"
     fill="#e0b477"
     p-id="6894"
     id="path110"
     style="stroke-width:1.32822" />
  <path
     d="m 824.01196,598.93583 0.34406,55.78491 102.18421,-53.90452 v -55.78489 z"
     fill="#bb884f"
     p-id="6895"
     id="path112"
     style="stroke-width:1.32822" />
  <path
     d="m 754.16888,561.95483 69.84308,36.981 102.52827,-53.9045 -70.18714,-36.98101 z"
     fill="#efcd90"
     p-id="6896"
     id="path114"
     style="stroke-width:1.32822" />
  <path
     d="m 883.53341,522.46664 14.45029,7.52156 -102.18421,53.90452 -14.4503,-7.52156 z"
     fill="#f7ecea"
     p-id="6897"
     id="path116"
     style="stroke-width:1.32822" />
  <path
     d="m 795.79949,583.89272 -14.4503,-7.52156 v 13.16272 l 14.4503,7.52157 z"
     fill="#c2ab9d"
     p-id="6898"
     id="path118"
     style="stroke-width:1.32822" />
  <path
     d="m 761.39402,614.29235 v 1.567 l 11.00975,5.64116 v -1.25359 z m 2.06433,0.6268 1.37622,0.62679 v -7.20816 l 1.37622,0.6268 -2.06432,-3.76078 -1.72028,1.8804 1.03216,0.62678 z m 5.50488,2.82058 1.37621,0.6268 v -7.20816 l 1.37623,0.6268 -2.06433,-3.76078 -1.72028,1.88039 1.03217,0.6268 z"
     fill="#5c4123"
     p-id="6899"
     id="path120"
     style="stroke-width:1.32822" />
  <path
     d="m 772.40377,623.6943 -10.6657,-5.64117 c -2.06431,-0.94019 -3.78459,-3.44738 -3.78459,-5.32777 v -9.71535 c 0,-1.88038 1.72028,-2.50718 3.78459,-1.56699 l 10.6657,5.64118 c 2.06433,0.94019 3.78461,3.44738 3.78461,5.32777 v 9.71534 c 0,2.19379 -1.72028,2.82058 -3.78461,1.56699 z m -10.6657,-21.62448 c -1.72026,-0.94019 -3.09648,-0.3134 -3.09648,1.25359 v 9.71536 c 0,1.56698 1.37622,3.44738 3.09648,4.38757 l 10.6657,5.64116 c 1.72028,0.9402 3.09649,0.31341 3.09649,-1.25358 v -9.71536 c 0,-1.56698 -1.37621,-3.44738 -3.09649,-4.38758 z"
     fill="#5c4123"
     p-id="6900"
     id="path122"
     style="stroke-width:1.32822" />
  <path
     d="m 795.11138,626.82829 c 0,-0.3134 -1.03217,-0.9402 -2.40838,-1.56699 -1.37623,-0.6268 -2.40838,-0.9402 -2.40838,-0.6268 0,-0.3134 -0.68812,-0.9402 -1.72028,-1.567 v 5.95457 c 0,0.6268 -0.68811,0.6268 -1.72028,0.3134 -1.03215,-0.3134 -1.72027,-1.56698 -1.72027,-2.19378 0,-0.3134 0,-0.3134 0.34406,-0.3134 0.34406,0 0.34406,0.3134 0.34406,0.62679 -2e-5,0.31341 0.34405,0.94019 1.03215,1.2536 1.03217,0.62679 0.68811,-0.6268 0.68811,-0.6268 v -5.64116 c -1.03216,-0.6268 -1.72026,-0.6268 -1.72026,-0.6268 0,-0.31341 -1.03218,-0.9402 -2.40839,-1.567 -1.37622,-0.6268 -2.40838,-0.94019 -2.40838,-0.6268 0,-2.50718 3.09649,-3.44738 6.53703,-1.88039 0,-0.31339 0.34406,-0.31339 0.34406,0 0.34406,0 0.34406,0.3134 0.34406,0.6268 3.78459,1.88039 6.88108,5.95457 6.88109,8.46176 z"
     fill="#5c4123"
     p-id="6901"
     id="path124"
     style="stroke-width:1.32822" />
  <path
     d="m 793.3911,634.97664 -10.66569,-5.64117 c -2.06433,-0.9402 -3.7846,-3.44738 -3.7846,-5.32777 v -10.02874 c 0,-1.8804 1.72027,-2.50719 3.7846,-1.56699 l 10.66569,5.64116 c 2.06433,1.2536 3.7846,3.44738 3.7846,5.32778 v 9.71534 c 0,2.19379 -1.72027,2.82059 -3.7846,1.88039 z m -10.66569,-21.62448 c -1.72027,-0.94019 -3.09649,-0.31341 -3.09649,1.25359 v 9.71535 c 0,1.56699 1.37622,3.44739 3.09649,4.38758 l 10.66569,5.64116 c 1.72028,0.9402 3.09649,0.31341 3.09649,-1.25359 v -9.71534 c 0,-1.56699 -1.37621,-3.44738 -3.09649,-4.38759 z"
     fill="#5c4123"
     p-id="6902"
     id="path126"
     style="stroke-width:1.32822" />
  <path
     d="m 811.97005,634.03645 c 0,1.56699 -1.03217,2.19378 -2.75243,1.56699 v 4.70097 l 1.72026,0.9402 v 0.6268 l -4.12864,-2.19379 v -0.6268 l 1.72026,0.9402 v -4.70098 c -1.37621,-0.9402 -2.40838,-2.82058 -2.75243,-4.38758 v -3.44738 l 5.50487,2.82059 v 3.76078 z"
     fill="#5c4123"
     p-id="6903"
     id="path128"
     style="stroke-width:1.32822" />
  <path
     d="m 814.72249,645.94559 -10.6657,-5.64118 c -2.06433,-0.94019 -3.78459,-3.44738 -3.78459,-5.32777 v -9.71534 c 0,-1.88039 1.72026,-2.50719 3.78459,-1.567 l 10.6657,5.64117 c 2.06433,0.9402 3.78459,3.44738 3.78459,5.32778 v 9.71534 c 0,2.19379 -1.72026,2.82059 -3.78459,1.567 z m -10.6657,-21.62449 c -1.72026,-0.94019 -3.09649,-0.3134 -3.09649,1.25359 v 9.71535 c 0,1.56699 1.37623,3.44738 3.09649,4.38758 l 10.6657,5.64117 c 1.72027,0.94019 3.09649,0.31339 3.09649,-1.25359 v -9.71536 c 0,-1.56699 -1.37622,-3.44738 -3.09649,-4.38757 z"
     fill="#5c4123"
     p-id="6904"
     id="path130"
     style="stroke-width:1.32822" />
  <path
     d="M 1005.3287,704.86447 V 316.25054 L 516.42716,573.55057 V 962.1645 l 42.66277,-22.56468 V 648.45277 L 973.67571,430.32753 v 291.14706"
     fill="#387a86"
     p-id="6905"
     id="path132"
     style="stroke-width:1.32822" />
  <path
     d="M 1005.3287,316.25054 516.42716,573.55057 v -8.46175 L 1005.3287,307.78879 Z"
     fill="#e0e0e0"
     p-id="6906"
     id="path134"
     style="stroke-width:1.32822" />
  <path
     d="M 27.525583,316.25054 516.42716,573.55057 V 962.1645 L 27.525583,704.86447 Z"
     fill="#5cb8cf"
     p-id="6907"
     id="path136"
     style="stroke-width:1.32822" />
  <path
     d="m 198.86478,505.85653 v -63.93326 l 59.52144,31.65324 v 63.61985 z"
     fill="#ffffff"
     p-id="6908"
     id="path138"
     style="stroke-width:1.32822" />
  <path
     d="m 206.08992,502.09575 45.07115,23.81827 v -48.57674 l -45.07115,-23.81827 z"
     fill="#0f2e42"
     p-id="6909"
     id="path140"
     style="stroke-width:1.32822" />
  <path
     d="m 124.20492,466.36834 v -63.61986 l 59.52145,31.33984 v 63.61986 z"
     fill="#ffffff"
     p-id="6910"
     id="path142"
     style="stroke-width:1.32822" />
  <path
     d="m 131.43007,462.60756 45.07115,23.81827 v -48.57674 l -45.07115,-23.81827 z"
     fill="#0f2e42"
     p-id="6911"
     id="path144"
     style="stroke-width:1.32822" />
  <path
     d="m 49.545085,427.19355 v -63.61986 l 59.521445,31.33983 v 63.61986 z"
     fill="#ffffff"
     p-id="6912"
     id="path146"
     style="stroke-width:1.32822" />
  <path
     d="m 56.770231,423.43277 45.071149,23.81827 V 398.67431 L 56.770231,374.85603 Z"
     fill="#0f2e42"
     p-id="6913"
     id="path148"
     style="stroke-width:1.32822" />
  <path
     d="M 27.525583,316.25054 516.42716,573.55057 v -8.46175 L 27.525583,307.78879 Z"
     fill="#e0e0e0"
     p-id="6914"
     id="path150"
     style="stroke-width:1.32822" />
  <path
     d="M 516.42716,565.08882 27.525583,307.78879 516.42716,50.80216 1005.3287,307.78879 Z"
     fill="#ffffff"
     p-id="6915"
     id="path152"
     style="stroke-width:1.32822" />
  <path
     d="M 80.85405,307.78879 516.42716,78.694607 952.00027,307.78879 516.42716,536.88296 Z"
     fill="#e0e0e0"
     p-id="6916"
     id="path154"
     style="stroke-width:1.32822" />
  <path
     d="M 80.85405,307.78879 115.2595,326.27929 515.05094,115.989 V 79.634801 Z"
     fill="#c4c4c4"
     p-id="6917"
     id="path156"
     style="stroke-width:1.32822" />
  <path
     d="m 516.42716,78.694607 -1.37622,0.940194 V 115.989 l 1.37622,-0.62678 400.82359,210.91707 34.74952,-18.4905 z"
     fill="#999999"
     p-id="6918"
     id="path158"
     style="stroke-width:1.32822" />
  <path
     d="m 585.92618,513.69149 -11.00974,-5.64117 -0.34406,-65.81365 11.00975,5.64117 z"
     fill="#ff7a4a"
     p-id="6919"
     id="path160"
     style="stroke-width:1.32822" />
  <path
     d="m 585.58213,447.87784 -11.00975,-5.64117 314.80995,-165.47432 11.00975,5.64118 z"
     fill="#ff8e3d"
     p-id="6920"
     id="path162"
     style="stroke-width:1.32822" />
  <path
     d="m 900.39208,282.40353 v 65.81364 l -314.4659,165.47432 -0.34405,-65.81365 z"
     fill="#ff5b1f"
     p-id="6921"
     id="path164"
     style="stroke-width:1.32822" />
</svg>
