<?xml version="1.0" standalone="no"?><!DOCTYPE svg PUBLIC "-//W3C//DTD SVG 1.1//EN" "http://www.w3.org/Graphics/SVG/1.1/DTD/svg11.dtd"><svg t="1683827703217" class="icon" viewBox="0 0 1024 1024" version="1.1" xmlns="http://www.w3.org/2000/svg" p-id="6839" data-spm-anchor-id="a313x.7781069.0.i0" xmlns:xlink="http://www.w3.org/1999/xlink" width="300" height="300"><path d="M711.014969 688.270401l-0.247224 44.005794-50.186383 29.419604v-44.005794z" fill="#BB884F" p-id="6840"></path><path d="M660.581362 717.690005v44.005794l-73.672622-42.522453 0.247223-44.005794z" fill="#E0B477" p-id="6841"></path><path d="M711.014969 688.270401l-50.433607 29.419604-73.425399-42.522453 50.186384-29.419604z" fill="#EFCD90" p-id="6842"></path><path d="M617.811685 657.367455l-10.383389 5.933366 73.425398 42.522453 10.38339-6.180589z" fill="#F7ECEA" p-id="6843"></path><path d="M680.853694 705.823274l10.38339-6.180589v10.630613l-10.38339 5.933365z" fill="#C2AB9D" p-id="6844"></path><path d="M705.57605 729.803959v0.988895l-7.911154 4.450024v-0.988894zM704.092709 730.051183l-0.988894 0.494447v-5.438918l-0.741671 0.494447 1.236118-3.213906 1.483341 1.730564-0.988894 0.494448zM700.137132 732.276195l-0.988894 0.494447v-5.438918l-0.741671 0.494447 1.236118-2.966683 1.483341 1.483342-0.988894 0.494447z" fill="#5C4123" p-id="6845"></path><path d="M695.192661 735.984549v-7.663931c0-1.483341 1.236118-3.46113 2.719459-4.202801l7.66393-4.450024c1.483341-0.741671 2.719459-0.247224 2.719459 1.236118v7.663931c0 1.483341-1.236118 3.46113-2.719459 4.2028l-7.66393 4.450024c-1.483341 0.741671-2.719459 0.247224-2.719459-1.236117z m2.719459-11.372284c-1.236118 0.741671-2.225012 2.225012-2.225012 3.461129v7.663931c0 1.236118 0.988894 1.483341 2.225012 0.988894l7.66393-4.450024c1.236118-0.741671 2.225012-2.225012 2.225012-3.46113v-7.66393c0-1.236118-0.988894-1.483341-2.225012-0.988895l-7.66393 4.450025zM681.595365 739.445678c0-0.247224 0.741671-0.741671 1.730565-1.236117 0.988894-0.494447 1.730565-0.741671 1.730564-0.494448 0-0.247224 0.494447-0.741671 1.236118-1.236117v4.697247c0 0.494447 0.494447 0.494447 1.236118 0.247224s1.236118-1.236118 1.236118-1.730565c0-0.247224 0-0.247224-0.247224-0.247224s-0.247224 0.247224-0.247223 0.494448-0.247224 0.741671-0.741671 0.988894c-0.741671 0.494447-0.494447-0.494447-0.494447-0.494447v-4.450024c0.741671-0.494447 1.236118-0.494447 1.236118-0.494448 0-0.247224 0.741671-0.741671 1.730565-1.236117 0.988894-0.494447 1.730565-0.741671 1.730565-0.494448 0-1.977789-2.225012-2.719459-4.697248-1.483341 0-0.247224-0.247224-0.247224-0.247224 0-0.247224 0-0.494447 0.247224-0.494447 0.494447-2.719459 1.730565-4.697248 4.697248-4.697247 6.675036-0.247224 0-0.247224 0 0 0z" fill="#5C4123" p-id="6846"></path><path d="M679.8648 744.884597v-7.663931c0-1.483341 1.236118-3.46113 2.719459-4.2028l7.66393-4.450024c1.483341-0.741671 2.719459-0.247224 2.719459 1.236117v7.663931c0 1.483341-1.236118 3.46113-2.719459 4.2028l-7.66393 4.450025c-1.483341 0.741671-2.719459 0.247224-2.719459-1.236118z m2.719459-11.619508c-1.236118 0.741671-2.225012 2.225012-2.225012 3.46113v7.663931c0 1.236118 0.988894 1.483341 2.225012 0.988894l7.66393-4.450024c1.236118-0.741671 2.225012-2.225012 2.225012-3.46113v-7.663931c0-1.236118-0.988894-1.483341-2.225012-0.988894l-7.66393 4.450024zM669.234186 745.13182c0 1.236118 0.741671 1.730565 1.977789 1.236118v3.708354l-1.236118 0.74167v0.494447l2.966683-1.730564v-0.494448l-1.236118 0.741671v-3.708353c0.988894-0.741671 1.730565-2.225012 1.977789-3.46113v-2.719459l-3.955577 2.472235v2.719459z" fill="#5C4123" p-id="6847"></path><path d="M664.784162 753.537422v-7.663931c0-1.483341 1.236118-3.46113 2.719459-4.202801l7.663931-4.450024c1.483341-0.741671 2.719459-0.247224 2.719459 1.236118v7.663931c0 1.483341-1.236118 3.46113-2.719459 4.2028l-7.663931 4.450024c-1.483341 0.741671-2.719459 0.247224-2.719459-1.236117z m2.719459-11.372284c-1.236118 0.741671-2.225012 2.225012-2.225012 3.46113v7.66393c0 1.236118 0.988894 1.483341 2.225012 0.988894l7.663931-4.450024c1.236118-0.741671 2.225012-2.225012 2.225012-3.46113v-7.66393c0-1.236118-0.988894-1.483341-2.225012-0.988895l-7.663931 4.450025z" fill="#5C4123" p-id="6848"></path><path d="M643.770159 731.040077v44.005795L593.336552 804.218252l0.247224-44.005794z" fill="#BB884F" p-id="6849"></path><path d="M593.583776 760.212458l-0.247224 44.005794-73.425398-42.275229v-44.253018z" fill="#E0B477" p-id="6850"></path><path d="M643.770159 731.040077l-50.186383 29.172381-73.672622-42.522453 50.433607-29.172381z" fill="#EFCD90" p-id="6851"></path><path d="M550.814099 699.889908l-10.383389 6.180589 73.425398 42.27523 10.38339-5.933366z" fill="#F7ECEA" p-id="6852"></path><path d="M613.856108 748.345727l10.38339-5.933366v10.38339l-10.38339 6.180589z" fill="#C2AB9D" p-id="6853"></path><path d="M638.578465 772.573636v0.988894l-7.911155 4.450024v-0.988894zM637.095123 772.820859l-0.988894 0.494448v-5.686142l-0.741671 0.494447 1.236118-2.966683 1.236118 1.483341-0.741671 0.494448zM633.139546 775.045872l-0.988894 0.494447v-5.438919l-0.741671 0.494447 1.236118-3.213906 1.236118 1.483341-0.741671 0.741671z" fill="#5C4123" p-id="6854"></path><path d="M627.947851 778.754225v-7.66393c0-1.483341 1.236118-3.46113 2.719459-4.202801l7.663931-4.450024c1.483341-0.741671 2.719459-0.247224 2.719459 1.236118v7.66393c0 1.483341-1.236118 3.46113-2.719459 4.202801l-7.663931 4.450024c-1.483341 0.741671-2.719459 0.247224-2.719459-1.236118z m2.719459-11.619507c-1.236118 0.741671-2.225012 2.225012-2.225012 3.461129v7.663931c0 1.236118 0.988894 1.483341 2.225012 0.988894l7.663931-4.450024c1.236118-0.741671 2.225012-2.225012 2.225012-3.46113v-7.66393c0-1.236118-0.988894-1.483341-2.225012-0.988895l-7.663931 4.450025z" fill="#5C4123" p-id="6855"></path><path d="M614.350555 782.215355s0.247224 0 0 0c0-0.247224 0.741671-0.741671 1.730565-1.236118 0.988894-0.494447 1.730565-0.741671 1.730565-0.494447 0-0.247224 0.494447-0.741671 1.236118-1.236118v4.697248c0 0.494447 0.494447 0.494447 1.236118 0.247223s1.236118-1.236118 1.236118-1.730565c0-0.247224 0-0.247224-0.247224-0.247223s-0.247224 0.247224-0.247223 0.494447-0.247224 0.741671-0.741671 0.988894c-0.741671 0.494447-0.741671-0.494447-0.741671-0.494447V778.754225c0.741671-0.494447 1.236118-0.494447 1.236118-0.494447 0-0.247224 0.741671-0.741671 1.730565-1.236118 0.988894-0.494447 1.730565-0.741671 1.730565-0.494447 0-1.977789-2.225012-2.719459-4.697248-1.483341 0-0.247224-0.247224-0.247224-0.247223 0-0.247224 0-0.247224 0.247224-0.247224 0.494447-2.472236 1.483341-4.697248 4.697248-4.697248 6.675036z" fill="#5C4123" p-id="6856"></path><path d="M612.867214 787.40705v-7.663931c0-1.483341 1.236118-3.46113 2.719459-4.2028l7.663931-4.450024c1.483341-0.741671 2.719459-0.247224 2.719459 1.236117v7.663931c0 1.483341-1.236118 3.46113-2.719459 4.2028L615.586673 788.643168c-1.483341 0.741671-2.719459 0.247224-2.719459-1.236118z m2.719459-11.372284c-1.236118 0.741671-2.225012 2.225012-2.225012 3.46113v7.66393c0 1.236118 0.988894 1.483341 2.225012 0.988894l7.663931-4.450024c1.236118-0.741671 2.225012-2.225012 2.225012-3.46113v-7.66393c0-1.236118-0.988894-1.483341-2.225012-0.988894l-7.663931 4.450024z" fill="#5C4123" p-id="6857"></path><path d="M602.236601 787.901497c0 1.236118 0.741671 1.730565 1.977788 1.236118v3.708353l-1.236118 0.741671v0.494447l2.966683-1.730565v-0.494447l-1.236118 0.741671v-3.708354c0.988894-0.741671 1.730565-2.225012 1.977789-3.46113v-2.719459l-4.202801 2.472236v2.719459z" fill="#5C4123" p-id="6858"></path><path d="M597.539353 796.307098V788.643168c0-1.483341 1.236118-3.46113 2.719459-4.202801l7.663931-4.450024c1.483341-0.741671 2.719459-0.247224 2.719459 1.236118v7.66393c0 1.483341-1.236118 3.46113-2.719459 4.202801l-7.663931 4.450024c-1.483341 0.741671-2.719459 0.247224-2.719459-1.236118z m2.719459-11.619507c-1.236118 0.741671-2.225012 2.225012-2.225012 3.461129v7.663931c0 1.236118 0.988894 1.483341 2.225012 0.988894l7.663931-4.450024c1.236118-0.741671 2.225012-2.225012 2.225012-3.46113V781.226461c0-1.236118-0.988894-1.483341-2.225012-0.988895l-7.663931 4.450025z" fill="#5C4123" p-id="6859"></path><path d="M674.920328 662.311927l-0.247223 44.005794-50.433607 29.419604 0.247223-44.005794z" fill="#A67946" p-id="6860"></path><path d="M624.486721 691.731531l-0.247223 44.005794-73.425399-42.522453 0.247224-44.005794z" fill="#E0B477" p-id="6861"></path><path d="M674.920328 662.311927l-50.433607 29.419604-73.425398-42.522453 50.186383-29.419604z" fill="#EFCD90" p-id="6862"></path><path d="M581.717045 631.408981l-10.38339 5.933366 73.425399 42.522453 10.383389-6.180589z" fill="#F7ECEA" p-id="6863"></path><path d="M644.759054 679.8648l10.383389-6.180589v10.630613l-10.383389 5.933365z" fill="#C2AB9D" p-id="6864"></path><path d="M669.48141 703.845485v0.988895l-7.911154 4.697247v-1.236118zM667.998069 704.092709l-0.988895 0.494447v-5.438918l-0.74167 0.494447 1.236117-3.213907 1.236118 1.730565-0.74167 0.494447zM664.042492 706.317721l-0.988895 0.494447v-5.438918l-0.74167 0.494447 1.236117-2.966683 1.236118 1.483341-0.74167 0.494448z" fill="#5C4123" p-id="6865"></path><path d="M659.09802 710.026074v-7.66393c0-1.483341 1.236118-3.46113 2.719459-4.202801l7.663931-4.450024c1.483341-0.741671 2.719459-0.247224 2.719459 1.236118v7.66393c0 1.483341-1.236118 3.46113-2.719459 4.202801l-7.663931 4.450024c-1.730565 0.741671-2.719459 0.247224-2.719459-1.236118z m2.472236-11.372284c-1.236118 0.741671-2.225012 2.225012-2.225012 3.46113v7.663931c0 1.236118 0.988894 1.483341 2.225012 0.988894l7.66393-4.450024c1.236118-0.741671 2.225012-2.225012 2.225012-3.46113v-7.66393c0-1.236118-0.988894-1.483341-2.225012-0.988895l-7.66393 4.450024z" fill="#5C4123" p-id="6866"></path><path d="M645.253501 713.487204c0.247224 0 0.247224 0 0 0 0-0.247224 0.741671-0.741671 1.730565-1.236118 0.988894-0.494447 1.730565-0.741671 1.730565-0.494447 0-0.247224 0.494447-0.741671 1.236117-1.236118v4.697248c0 0.494447 0.494447 0.494447 1.236118 0.247224s1.236118-1.236118 1.236118-1.730565c0-0.247224 0-0.247224-0.247223-0.247224s-0.247224 0.247224-0.247224 0.494447-0.247224 0.741671-0.741671 0.988895c-0.741671 0.494447-0.494447-0.494447-0.494447-0.494447v-4.450025c0.741671-0.494447 1.236118-0.494447 1.236118-0.494447 0-0.247224 0.741671-0.741671 1.730565-1.236118 0.988894-0.494447 1.730565-0.741671 1.730565-0.494447 0-1.977789-2.225012-2.719459-4.697248-1.483341 0-0.247224-0.247224-0.247224-0.247223 0-0.247224 0-0.247224 0.247224-0.247224 0.494447-2.719459 1.730565-4.697248 4.697248-4.944471 6.675036z" fill="#5C4123" p-id="6867"></path><path d="M643.770159 718.926123v-7.663931c0-1.483341 1.236118-3.46113 2.71946-4.2028l7.66393-4.450025c1.483341-0.741671 2.719459-0.247224 2.719459 1.236118v7.663931c0 1.483341-1.236118 3.46113-2.719459 4.2028l-7.66393 4.450024c-1.483341 0.741671-2.719459 0.247224-2.71946-1.236117z m2.71946-11.619508c-1.236118 0.741671-2.225012 2.225012-2.225013 3.46113v7.663931c0 1.236118 0.988894 1.483341 2.225013 0.988894l7.66393-4.450024c1.236118-0.741671 2.225012-2.225012 2.225012-3.46113v-7.663931c0-1.236118-0.988894-1.483341-2.225012-0.988894l-7.66393 4.450024z" fill="#5C4123" p-id="6868"></path><path d="M633.139546 719.173346c0 1.236118 0.741671 1.730565 1.977789 1.236118v3.708353l-1.236118 0.741671v0.494447l2.966683-1.730565v-0.494447l-1.236118 0.741671v-3.708354c0.988894-0.741671 1.730565-2.225012 1.977788-3.461129v-2.71946l-3.955577 2.472236v2.719459z" fill="#5C4123" p-id="6869"></path><path d="M628.689522 727.578947v-7.66393c0-1.483341 1.236118-3.46113 2.719459-4.202801l7.663931-4.450024c1.483341-0.741671 2.719459-0.247224 2.719459 1.236118v7.66393c0 1.483341-1.236118 3.46113-2.719459 4.202801l-7.663931 4.450024c-1.730565 0.741671-2.719459 0.247224-2.719459-1.236118z m2.472236-11.372284c-1.236118 0.741671-2.225012 2.225012-2.225012 3.46113v7.663931c0 1.236118 0.988894 1.483341 2.225012 0.988894l7.66393-4.450024c1.236118-0.741671 2.225012-2.225012 2.225012-3.46113v-7.66393c0-1.236118-0.988894-1.483341-2.225012-0.988895l-7.66393 4.450024z" fill="#5C4123" p-id="6870"></path><path d="M545.869628 164.650893l351.304684 202.723322v306.557219l-351.304684-202.723322z" fill="#16212E" p-id="6871"></path><path d="M666.02028 576.772574v44.005794l50.433607 29.17238-0.247224-44.005794z" fill="#E0B477" p-id="6872"></path><path d="M716.206663 605.944954l0.247224 44.005794 73.425398-42.522452v-44.005795z" fill="#BB884F" p-id="6873"></path><path d="M666.02028 576.772574l50.186383 29.17238 73.672622-42.522453-50.433607-29.17238z" fill="#EFCD90" p-id="6874"></path><path d="M758.97634 545.622405l10.630613 6.180589-73.672622 42.275229-10.383389-5.933365z" fill="#F7ECEA" p-id="6875"></path><path d="M695.934331 594.078223l-10.383389-5.933365v10.383389l10.383389 6.180589z" fill="#C2AB9D" p-id="6876"></path><path d="M671.211975 618.058909v1.236118l7.911154 4.450024v-0.988895zM672.94254 618.553356l0.741671 0.494447v-5.686142l0.988894 0.494447-1.483342-2.966683-1.236117 1.483342 0.988894 0.494447zM676.650893 620.778368l0.988895 0.494447V615.586673l0.988894 0.741671-1.483342-3.213907-1.236117 1.483342 0.74167 0.494447z" fill="#5C4123" p-id="6877"></path><path d="M679.123129 625.475616l-7.663931-4.450024c-1.483341-0.741671-2.719459-2.719459-2.719459-4.202801v-7.663931c0-1.483341 1.236118-1.977789 2.719459-1.236117l7.663931 4.450024c1.483341 0.741671 2.719459 2.719459 2.719459 4.2028v7.663931c0 1.730565-1.236118 2.225012-2.719459 1.236118z m-7.663931-17.058426c-1.236118-0.741671-2.225012-0.247224-2.225012 0.988894v7.66393c0 1.236118 0.988894 2.719459 2.225012 3.46113l7.663931 4.450025c1.236118 0.741671 2.225012 0.247224 2.225012-0.988895v-7.66393c0-1.236118-0.988894-2.719459-2.225012-3.46113l-7.663931-4.450024z" fill="#5C4123" p-id="6878"></path><path d="M695.439884 627.947851c0-0.247224-0.741671-0.741671-1.730565-1.483341-0.988894-0.494447-1.730565-0.741671-1.730565-0.494447 0-0.247224-0.494447-0.741671-1.236118-1.236118v4.697248c0 0.494447-0.494447 0.494447-1.236117 0.247223s-1.236118-1.236118-1.236118-1.730565c0-0.247224 0-0.247224 0.247223-0.247223s0.247224 0.247224 0.247224 0.494447 0.247224 0.741671 0.741671 0.988894c0.741671 0.494447 0.741671-0.494447 0.74167-0.494447v-4.450024c-0.741671-0.494447-1.236118-0.494447-1.236118-0.494447 0-0.247224-0.741671-0.741671-1.730564-1.236118-0.988894-0.494447-1.730565-0.741671-1.730565-0.494447 0-1.977789 2.225012-2.719459 4.697247-1.483342 0-0.247224 0.247224-0.247224 0.247224 0 0.247224 0 0.247224 0.247224 0.247223 0.494448 2.472236 1.730565 4.697248 4.944471 4.697248 6.922259z" fill="#5C4123" p-id="6879"></path><path d="M694.203766 634.375664l-7.66393-4.450024c-1.483341-0.741671-2.719459-2.719459-2.719459-4.202801V618.058909c0-1.483341 1.236118-1.977789 2.719459-1.236118l7.66393 4.450024c1.483341 0.741671 2.719459 2.719459 2.719459 4.202801v7.66393c0 1.483341-1.236118 1.977789-2.719459 1.236118z m-7.66393-17.058426c-1.236118-0.741671-2.225012-0.247224-2.225012 0.988894v7.663931c0 1.236118 0.988894 2.719459 2.225012 3.46113l7.66393 4.450024c1.236118 0.741671 2.225012 0.247224 2.225012-0.988894v-7.663931c0-1.236118-0.988894-2.719459-2.225012-3.46113l-7.66393-4.450024z" fill="#5C4123" p-id="6880"></path><path d="M707.801062 633.633993c0 1.236118-0.741671 1.730565-1.977788 1.236118v3.708354l1.236118 0.74167v0.494447l-2.966683-1.730565v-0.494447l1.236118 0.741671v-3.708354c-0.988894-0.741671-1.730565-2.225012-1.977789-3.461129v-2.71946l4.202801 2.472236v2.719459z" fill="#5C4123" p-id="6881"></path><path d="M709.531627 643.028489l-7.66393-4.450024c-1.483341-0.988894-2.719459-2.719459-2.719459-4.202801v-7.663931c0-1.483341 1.236118-1.977789 2.719459-1.236117l7.66393 4.450024c1.483341 0.741671 2.719459 2.719459 2.719459 4.2028v7.663931c0 1.730565-1.236118 2.225012-2.719459 1.236118z m-7.66393-17.058426c-1.236118-0.741671-2.225012-0.247224-2.225012 0.988894v7.66393c0 1.236118 0.988894 2.719459 2.225012 3.46113l7.66393 4.450025c1.236118 0.741671 2.225012 0.247224 2.225012-0.988895v-7.66393c0-1.236118-0.988894-2.719459-2.225012-3.46113l-7.66393-4.450024z" fill="#5C4123" p-id="6882"></path><path d="M733.017866 619.295027l0.247223 44.005794 50.186384 29.419604v-44.005794z" fill="#E0B477" p-id="6883"></path><path d="M783.451473 648.714631v44.005794l73.672622-42.522453-0.247224-44.005794z" fill="#BB884F" p-id="6884"></path><path d="M733.017866 619.295027l50.433607 29.419604 73.425398-42.522453-50.433607-29.172381z" fill="#EFCD90" p-id="6885"></path><path d="M826.221149 588.392081l10.38339 5.933366-73.672622 42.522453-10.38339-6.18059z" fill="#F7ECEA" p-id="6886"></path><path d="M762.931917 636.8479l-10.38339-6.18059v10.630614l10.38339 5.933365z" fill="#C2AB9D" p-id="6887"></path><path d="M738.456784 660.828585v0.988894l7.663931 4.697248v-1.236118zM739.940126 661.075809l0.74167 0.494447v-5.438918l0.988894 0.494447-1.236117-2.966683-1.483342 1.483341 0.988895 0.494447zM743.895703 663.300821l0.74167 0.494447v-5.438918l0.988895 0.494447-1.236118-2.966683-1.483342 1.483341 0.988895 0.494447z" fill="#5C4123" p-id="6888"></path><path d="M746.120715 668.245292l-7.663931-4.450024c-1.483341-0.741671-2.719459-2.719459-2.719459-4.202801v-7.66393c0-1.483341 1.236118-1.977789 2.719459-1.236118l7.663931 4.450024c1.483341 0.741671 2.719459 2.719459 2.719459 4.202801v7.66393c0 1.483341-1.236118 1.977789-2.719459 1.236118z m-7.663931-17.058426c-1.236118-0.741671-2.225012-0.247224-2.225012 0.988895v7.66393c0 1.236118 0.988894 2.719459 2.225012 3.46113l7.663931 4.450024c1.236118 0.741671 2.225012 0.247224 2.225012-0.988894v-7.663931c0-1.236118-0.988894-2.719459-2.225012-3.46113l-7.663931-4.450024z" fill="#5C4123" p-id="6889"></path><path d="M762.43747 670.470304c0-0.247224-0.741671-0.741671-1.730565-1.236118-0.988894-0.494447-1.730565-0.741671-1.730565-0.494447 0-0.247224-0.494447-0.741671-1.236118-1.236118v4.697248c0 0.494447-0.494447 0.494447-1.236118 0.247224s-1.236118-1.236118-1.236118-1.730565c0-0.247224 0-0.247224 0.247224-0.247224s0.247224 0.247224 0.247224 0.494447 0.247224 0.741671 0.74167 0.988895c0.741671 0.494447 0.741671-0.494447 0.741671-0.494448v-4.450024c-0.741671-0.494447-1.236118-0.494447-1.236118-0.494447 0-0.247224-0.741671-0.741671-1.730565-1.236118-0.988894-0.494447-1.730565-0.741671-1.730565-0.494447 0-1.977789 2.225012-2.719459 4.697248-1.483341 0-0.247224 0.247224-0.247224 0.247224 0 0.247224 0 0.247224 0.247224 0.247223 0.494447 2.719459 1.730565 4.697248 4.697248 4.697248 6.675036 0 0.247224 0 0.247224 0 0z" fill="#5C4123" p-id="6890"></path><path d="M761.448576 676.898117l-7.663931-4.450024c-1.483341-0.741671-2.719459-2.719459-2.719459-4.202801v-7.66393c0-1.483341 1.236118-1.977789 2.719459-1.236118l7.663931 4.450024c1.483341 0.741671 2.719459 2.719459 2.719459 4.202801v7.66393c0 1.730565-1.236118 2.225012-2.719459 1.236118z m-7.911154-17.058426c-1.236118-0.741671-2.225012-0.247224-2.225013 0.988894v7.663931c0 1.236118 0.988894 2.719459 2.225013 3.46113l7.66393 4.450024c1.236118 0.741671 2.225012 0.247224 2.225012-0.988895v-7.66393c0-1.236118-0.988894-2.719459-2.225012-3.46113l-7.66393-4.450024z" fill="#5C4123" p-id="6891"></path><path d="M774.798648 676.156446c0 1.236118-0.741671 1.730565-1.977789 1.236118v3.708353l1.236118 0.741671v0.494447l-2.966682-1.730565v-0.494447l1.236117 0.741671V677.392564c-0.988894-0.741671-1.730565-2.225012-1.977788-3.46113v-2.719459l3.955577 2.472236v2.472235z" fill="#5C4123" p-id="6892"></path><path d="M776.529213 685.798165l-7.663931-4.450024c-1.483341-0.741671-2.719459-2.719459-2.719459-4.202801v-7.66393c0-1.483341 1.236118-1.977789 2.719459-1.236118l7.663931 4.450024c1.483341 0.741671 2.719459 2.719459 2.719459 4.202801v7.66393c0 1.483341-1.236118 1.977789-2.719459 1.236118z m-7.663931-17.058426c-1.236118-0.741671-2.225012-0.247224-2.225012 0.988895v7.66393c0 1.236118 0.988894 2.719459 2.225012 3.46113l7.663931 4.450024c1.236118 0.741671 2.225012 0.247224 2.225012-0.988894v-7.663931c0-1.236118-0.988894-2.719459-2.225012-3.46113l-7.663931-4.450024z" fill="#5C4123" p-id="6893"></path><path d="M720.16224 559.714148v44.005794l50.433607 29.172381-0.247223-44.005795z" fill="#E0B477" p-id="6894"></path><path d="M770.348624 588.886528l0.247223 44.005795 73.425399-42.522453V546.364075z" fill="#BB884F" p-id="6895"></path><path d="M720.16224 559.714148l50.186384 29.17238 73.672622-42.522453-50.433607-29.17238z" fill="#EFCD90" p-id="6896"></path><path d="M813.1183 528.563979l10.38339 5.933365-73.425398 42.522453-10.38339-5.933365z" fill="#F7ECEA" p-id="6897"></path><path d="M750.076292 577.019797l-10.38339-5.933365v10.383389l10.38339 5.933366z" fill="#C2AB9D" p-id="6898"></path><path d="M725.353935 601.000483v1.236118l7.911154 4.450024v-0.988894zM726.837277 601.49493l0.988894 0.494447v-5.686142l0.988894 0.494447-1.483341-2.966682-1.236118 1.483341 0.741671 0.494447zM730.792854 603.719942l0.988894 0.494447v-5.686142l0.988894 0.494447-1.483341-2.966682-1.236118 1.483341 0.741671 0.494447z" fill="#5C4123" p-id="6899"></path><path d="M733.265089 608.41719l-7.66393-4.450024c-1.483341-0.741671-2.719459-2.719459-2.719459-4.202801v-7.66393c0-1.483341 1.236118-1.977789 2.719459-1.236118l7.66393 4.450024c1.483341 0.741671 2.719459 2.719459 2.71946 4.2028v7.663931c0 1.730565-1.236118 2.225012-2.71946 1.236118z m-7.66393-17.058426c-1.236118-0.741671-2.225012-0.247224-2.225012 0.988894v7.663931c0 1.236118 0.988894 2.719459 2.225012 3.461129l7.66393 4.450025c1.236118 0.741671 2.225012 0.247224 2.225012-0.988895v-7.66393c0-1.236118-0.988894-2.719459-2.225012-3.46113l-7.66393-4.450024z" fill="#5C4123" p-id="6900"></path><path d="M749.581845 610.889425c0-0.247224-0.741671-0.741671-1.730565-1.236117-0.988894-0.494447-1.730565-0.741671-1.730565-0.494448 0-0.247224-0.494447-0.741671-1.236118-1.236117v4.697247c0 0.494447-0.494447 0.494447-1.236118 0.247224s-1.236118-1.236118-1.236118-1.730565c0-0.247224 0-0.247224 0.247224-0.247224s0.247224 0.247224 0.247223 0.494448 0.247224 0.741671 0.741671 0.988894c0.741671 0.494447 0.494447-0.494447 0.494447-0.494447v-4.450024c-0.741671-0.494447-1.236118-0.494447-1.236118-0.494448 0-0.247224-0.741671-0.741671-1.730565-1.236117-0.988894-0.494447-1.730565-0.741671-1.730565-0.494448 0-1.977789 2.225012-2.719459 4.697248-1.483341 0-0.247224 0.247224-0.247224 0.247224 0 0.247224 0 0.247224 0.247224 0.247223 0.494447 2.719459 1.483341 4.944471 4.697248 4.944472 6.675036z" fill="#5C4123" p-id="6901"></path><path d="M748.345727 617.317238l-7.663931-4.450024c-1.483341-0.741671-2.719459-2.719459-2.719459-4.202801V600.753259c0-1.483341 1.236118-1.977789 2.719459-1.236118l7.663931 4.450025c1.483341 0.988894 2.719459 2.719459 2.719459 4.2028v7.663931c0 1.730565-1.236118 2.225012-2.719459 1.483341z m-7.663931-17.058426c-1.236118-0.741671-2.225012-0.247224-2.225012 0.988894v7.663931c0 1.236118 0.988894 2.719459 2.225012 3.46113l7.663931 4.450024c1.236118 0.741671 2.225012 0.247224 2.225012-0.988894V608.169966c0-1.236118-0.988894-2.719459-2.225012-3.46113l-7.663931-4.450024z" fill="#5C4123" p-id="6902"></path><path d="M761.695799 616.575567c0 1.236118-0.741671 1.730565-1.977788 1.236118v3.708354l1.236117 0.74167v0.494447l-2.966682-1.730564v-0.494448l1.236117 0.741671v-3.708353c-0.988894-0.741671-1.730565-2.225012-1.977788-3.46113v-2.719459l3.955577 2.225012v2.966682z" fill="#5C4123" p-id="6903"></path><path d="M763.673588 625.970063l-7.663931-4.450024c-1.483341-0.741671-2.719459-2.719459-2.719459-4.202801v-7.66393c0-1.483341 1.236118-1.977789 2.719459-1.236118l7.663931 4.450024c1.483341 0.741671 2.719459 2.719459 2.719459 4.2028v7.663931c0 1.730565-1.236118 2.225012-2.719459 1.236118z m-7.663931-17.058426c-1.236118-0.741671-2.225012-0.247224-2.225012 0.988894v7.663931c0 1.236118 0.988894 2.719459 2.225012 3.46113l7.663931 4.450024c1.236118 0.741671 2.225012 0.247224 2.225012-0.988895v-7.66393c0-1.236118-0.988894-2.719459-2.225012-3.46113l-7.663931-4.450024z" fill="#5C4123" p-id="6904"></path><path d="M900.635442 672.448093V365.890874l-351.304684 202.970546v306.557218l30.655722-17.800096V627.947851l297.904394-172.0676v229.670691" fill="#387A86" p-id="6905"></path><path d="M900.635442 365.890874l-351.304684 202.970546v-6.675037l351.304684-202.970545z" fill="#E0E0E0" p-id="6906"></path><path d="M198.026074 365.890874l351.304684 202.970546v306.557218L198.026074 672.448093z" fill="#5CB8CF" p-id="6907"></path><path d="M321.143409 515.46113v-50.433607l42.769676 24.96958v50.186383z" fill="#FFFFFF" p-id="6908"></path><path d="M326.335104 512.494447l32.386287 18.788991v-38.319652l-32.386287-18.788991z" fill="#0F2E42" p-id="6909"></path><path d="M267.495896 484.310961v-50.186384l42.769676 24.722357v50.186383z" fill="#FFFFFF" p-id="6910"></path><path d="M272.687591 481.344278l32.386286 18.788991v-38.319652l-32.386286-18.788991z" fill="#0F2E42" p-id="6911"></path><path d="M213.848382 453.408015v-50.186383l42.769677 24.722356v50.186384z" fill="#FFFFFF" p-id="6912"></path><path d="M219.040077 450.441333l32.386287 18.788991v-38.319653l-32.386287-18.788991z" fill="#0F2E42" p-id="6913"></path><path d="M198.026074 365.890874l351.304684 202.970546v-6.675037L198.026074 359.215838z" fill="#E0E0E0" p-id="6914"></path><path d="M549.330758 562.186383L198.026074 359.215838l351.304684-202.723322 351.304684 202.723322z" fill="#FFFFFF" p-id="6915"></path><path d="M236.345727 359.215838l312.985031-180.720425 312.985031 180.720425-312.985031 180.720425z" fill="#E0E0E0" p-id="6916"></path><path d="M236.345727 359.215838l24.722356 14.58619 287.273781-165.887011V179.237084z" fill="#C4C4C4" p-id="6917"></path><path d="M549.330758 178.495413l-0.988894 0.741671v28.677933l0.988894-0.494447 288.015452 166.381458 24.969579-14.58619z" fill="#999999" p-id="6918"></path><path d="M599.269918 521.641719l-7.911154-4.450024-0.247224-51.916949 7.911154 4.450025z" fill="#FF7A4A" p-id="6919"></path><path d="M599.022694 469.724771l-7.911154-4.450025 226.209561-130.534041 7.911154 4.450024z" fill="#FF8E3D" p-id="6920"></path><path d="M825.232255 339.190729v51.916948L599.269918 521.641719l-0.247224-51.916948z" fill="#FF5B1F" p-id="6921"></path></svg>